solid AssimpScene
 facet normal 0.343447 -0.206151 0.916267
  outer loop
  vertex -2.4035 35.0112 4.12492
  vertex -5.78326 29.3881 4.12662
  vertex -1.80811 32.1648 3.26134
  endloop
 endfacet

 facet normal 0.515802 -0.30978 0.798739
  outer loop
  vertex -2.4035 35.0112 4.12492
  vertex -5.39426 32.2294 4.97736
  vertex -5.78326 29.3881 4.12662
  endloop
 endfacet

 facet normal -0.281827 -0.958798 -0.0357718
  outer loop
  vertex -1.5537 -37.5397 28.3184
  vertex -3.48258 -36.9728 28.3184
  vertex -1.48728 -37.4616 25.7005
  endloop
 endfacet

 facet normal -7.62909e-09 0.957818 0.287377
  outer loop
  vertex -6.90857 32.9317 18.4312
  vertex -3.25358 37.688 2.57853
  vertex -4.78237 37.688 2.57853
  endloop
 endfacet

 facet normal -6.78141e-09 0.957818 0.287377
  outer loop
  vertex -6.90857 32.9317 18.4312
  vertex -4.96288 32.9317 18.4312
  vertex -3.25358 37.688 2.57853
  endloop
 endfacet

 facet normal 2.9404e-06 0.727858 -0.685728
  outer loop
  vertex -4.78237 37.688 2.57853
  vertex -1.31851 35.2587 0
  vertex -6.90857 35.2587 0
  endloop
 endfacet

 facet normal 2.61282e-06 0.727858 -0.685728
  outer loop
  vertex -4.78237 37.688 2.57853
  vertex -3.25358 37.688 2.57853
  vertex -1.31851 35.2587 0
  endloop
 endfacet

 facet normal 0.915829 0.374527 0.144865
  outer loop
  vertex -3.25358 37.688 2.57853
  vertex -2.84579 31.6588 15.5883
  vertex -2.4035 35.0112 4.12492
  endloop
 endfacet

 facet normal 0.733759 0.624913 0.266612
  outer loop
  vertex -3.25358 37.688 2.57853
  vertex -4.96288 32.9317 18.4312
  vertex -2.84579 31.6588 15.5883
  endloop
 endfacet

 facet normal 0 0.358605 -0.933489
  outer loop
  vertex 9.97385 -43.1615 15.427
  vertex 4.26436 -43.1615 15.427
  vertex 6.47212 -37.1912 17.7206
  endloop
 endfacet

 facet normal 0.950309 0.110479 0.291045
  outer loop
  vertex -0.723149 31.4239 0
  vertex -2.4035 35.0112 4.12492
  vertex -1.80811 32.1648 3.26134
  endloop
 endfacet

 facet normal 0.95421 0.148144 0.259878
  outer loop
  vertex -0.723149 31.4239 0
  vertex -1.31851 35.2587 0
  vertex -2.4035 35.0112 4.12492
  endloop
 endfacet

 facet normal 0 0 -1
  outer loop
  vertex -5.78326 28.0148 0
  vertex -7.63605 31.4239 0
  vertex -0.723149 31.4239 0
  endloop
 endfacet

 facet normal 0 0.707785 -0.706428
  outer loop
  vertex 4.28193 -45.9899 12.5933
  vertex 4.26436 -43.1615 15.427
  vertex 5.55519 -45.9899 12.5933
  endloop
 endfacet

 facet normal 0 0 -1
  outer loop
  vertex -1.31851 35.2587 0
  vertex -7.63605 31.4239 0
  vertex -6.90857 35.2587 0
  endloop
 endfacet

 facet normal 0 0 -1
  outer loop
  vertex -1.31851 35.2587 0
  vertex -0.723149 31.4239 0
  vertex -7.63605 31.4239 0
  endloop
 endfacet

 facet normal -0.879725 0.47031 0.0699437
  outer loop
  vertex -6.90857 32.9317 18.4312
  vertex -6.90857 35.0112 4.44863
  vertex -7.82297 31.6587 15.49
  endloop
 endfacet

 facet normal -0.744724 0.660112 0.0981708
  outer loop
  vertex -6.90857 32.9317 18.4312
  vertex -4.78237 37.688 2.57853
  vertex -6.90857 35.0112 4.44863
  endloop
 endfacet

 facet normal -0.552211 -0.783931 -0.283753
  outer loop
  vertex -6.90857 35.0112 4.44863
  vertex -4.76428 30.4393 12.9063
  vertex -7.82297 31.6587 15.49
  endloop
 endfacet

 facet normal -0.874421 -0.483543 -0.0396872
  outer loop
  vertex -6.90857 35.0112 4.44863
  vertex -5.39426 32.2294 4.97736
  vertex -4.76428 30.4393 12.9063
  endloop
 endfacet

 facet normal -0.77035 0.636636 0.035431
  outer loop
  vertex -4.78237 37.688 2.57853
  vertex -6.90857 35.2587 0
  vertex -6.90857 35.0112 4.44863
  endloop
 endfacet

 facet normal -0.970104 0.242315 0.0134856
  outer loop
  vertex -6.90857 35.2587 0
  vertex -7.63605 32.1648 3.26134
  vertex -6.90857 35.0112 4.44863
  endloop
 endfacet

 facet normal -0.981599 0.186211 -0.042302
  outer loop
  vertex -6.90857 35.2587 0
  vertex -7.63605 31.4239 0
  vertex -7.63605 32.1648 3.26134
  endloop
 endfacet

 facet normal -0.611084 -0.166606 0.773834
  outer loop
  vertex -5.78326 29.3881 4.12662
  vertex -6.90857 35.0112 4.44863
  vertex -7.63605 32.1648 3.26134
  endloop
 endfacet

 facet normal -0.575876 -0.161144 0.801499
  outer loop
  vertex -5.78326 29.3881 4.12662
  vertex -5.39426 32.2294 4.97736
  vertex -6.90857 35.0112 4.44863
  endloop
 endfacet

 facet normal -0.843358 -0.50986 0.169678
  outer loop
  vertex -7.63605 32.1648 3.26134
  vertex -5.78326 28.0148 0
  vertex -5.78326 29.3881 4.12662
  endloop
 endfacet

 facet normal -0.873502 -0.474726 0.107844
  outer loop
  vertex -7.63605 32.1648 3.26134
  vertex -7.63605 31.4239 0
  vertex -5.78326 28.0148 0
  endloop
 endfacet

 facet normal 0.590408 -0.765811 0.254857
  outer loop
  vertex -5.78326 28.0148 0
  vertex -1.80811 32.1648 3.26134
  vertex -5.78326 29.3881 4.12662
  endloop
 endfacet

 facet normal 0.523296 -0.776716 0.350535
  outer loop
  vertex -5.78326 28.0148 0
  vertex -0.723149 31.4239 0
  vertex -1.80811 32.1648 3.26134
  endloop
 endfacet

 facet normal 0.71471 -0.66791 -0.207572
  outer loop
  vertex -5.39426 32.2294 4.97736
  vertex -2.84579 31.6588 15.5883
  vertex -4.76428 30.4393 12.9063
  endloop
 endfacet

 facet normal 0.638109 -0.745278 -0.193335
  outer loop
  vertex -5.39426 32.2294 4.97736
  vertex -2.4035 35.0112 4.12492
  vertex -2.84579 31.6588 15.5883
  endloop
 endfacet

 facet normal -0.370284 -0.627204 0.685205
  outer loop
  vertex 2.61161 50.0411 16.0603
  vertex 4.59376 49.5233 16.6574
  vertex 2.61161 50.8983 16.8449
  endloop
 endfacet

 facet normal -0.341735 -0.85287 0.394753
  outer loop
  vertex 2.61161 50.0411 16.0603
  vertex 4.59376 48.8685 15.2427
  vertex 4.59376 49.5233 16.6574
  endloop
 endfacet

 facet normal 0.65298 -0.657633 0.375682
  outer loop
  vertex -2.52543 -28.7285 20.4345
  vertex -4.57665 -32.4649 17.4592
  vertex -1.10498 -29.231 17.0861
  endloop
 endfacet

 facet normal 0.0297972 -0.632614 0.773894
  outer loop
  vertex -2.52543 -28.7285 20.4345
  vertex -4.82917 -25.5044 23.1587
  vertex -4.57665 -32.4649 17.4592
  endloop
 endfacet

 facet normal -0.461367 -0.0703978 0.884412
  outer loop
  vertex -4.57665 -32.4649 17.4592
  vertex -5.96536 -20.4852 17.6883
  vertex -7.45702 -29.0448 16.2288
  endloop
 endfacet

 facet normal -0.988308 -0.116449 0.0984242
  outer loop
  vertex -4.57665 -32.4649 17.4592
  vertex -4.82917 -25.5044 23.1587
  vertex -5.96536 -20.4852 17.6883
  endloop
 endfacet

 facet normal -0.848654 0.278237 0.449856
  outer loop
  vertex -0.954856 -17.776 36.1701
  vertex -4.71543 -13.721 26.5676
  vertex -6.53624 -19.3641 26.623
  endloop
 endfacet

 facet normal -0.877085 0.209805 0.432091
  outer loop
  vertex -0.954856 -17.776 36.1701
  vertex -0.837917 -17.1427 36.0999
  vertex -4.71543 -13.721 26.5676
  endloop
 endfacet

 facet normal -0.23938 0.878789 0.412827
  outer loop
  vertex -0.837917 -17.1427 36.0999
  vertex -3.10232 -13.2337 26.4657
  vertex -4.71543 -13.721 26.5676
  endloop
 endfacet

 facet normal -0.967845 0.0479461 0.246935
  outer loop
  vertex -0.837917 -17.1427 36.0999
  vertex -0.954856 -14.212 35.0725
  vertex -3.10232 -13.2337 26.4657
  endloop
 endfacet

 facet normal 0.0535388 0.168856 -0.984186
  outer loop
  vertex 4.59376 -2.95967 16.083
  vertex 1.0634 9.78076 18.0768
  vertex 7.35506 8.0656 18.1248
  endloop
 endfacet

 facet normal -0.980572 -0.0232962 0.194772
  outer loop
  vertex -5.77876 21.1397 20.6849
  vertex -7.07057 26.6887 14.845
  vertex -7.12961 22.1381 14.0035
  endloop
 endfacet

 facet normal -0.96627 0.0423866 0.254019
  outer loop
  vertex -5.77876 21.1397 20.6849
  vertex -6.24559 27.372 17.8692
  vertex -7.07057 26.6887 14.845
  endloop
 endfacet

 facet normal 0 -0.0352496 -0.999379
  outer loop
  vertex 2.72521 48.9817 3.65551
  vertex 4.59376 42.7344 3.87586
  vertex 2.56547 42.7344 3.87586
  endloop
 endfacet

 facet normal -0.295502 -0.0104242 -0.955285
  outer loop
  vertex 1.7581 -24.3397 15.3413
  vertex -5.96536 -20.4852 17.6883
  vertex -1.15318 -13.7479 16.1262
  endloop
 endfacet

 facet normal -0.115236 0.129491 -0.984862
  outer loop
  vertex -3.53061 10.769 18.8386
  vertex 4.59376 -2.95967 16.083
  vertex -2.27878 -9.84658 15.9816
  endloop
 endfacet

 facet normal -0.91114 0.302527 -0.279824
  outer loop
  vertex -2.27309 -43.0882 20.3473
  vertex -0.935451 -36.602 23.0044
  vertex -0.786329 -43.1615 15.427
  endloop
 endfacet

 facet normal -0.779111 -0.625662 0.0391662
  outer loop
  vertex 2.00108 52.3305 12.2813
  vertex 4.59376 49.1833 13.5798
  vertex 3.02982 51.1796 14.3592
  endloop
 endfacet

 facet normal -0.506225 -0.650577 -0.566115
  outer loop
  vertex 2.00108 52.3305 12.2813
  vertex 4.59376 50.5481 12.0113
  vertex 4.59376 49.1833 13.5798
  endloop
 endfacet

 facet normal -0.979348 -0.0994555 -0.176027
  outer loop
  vertex 3.02982 51.1796 14.3592
  vertex 2.61161 50.8983 16.8449
  vertex 2.61161 52.6449 15.8581
  endloop
 endfacet

 facet normal -0.979302 0.136663 -0.149301
  outer loop
  vertex 3.02982 51.1796 14.3592
  vertex 2.61161 50.0411 16.0603
  vertex 2.61161 50.8983 16.8449
  endloop
 endfacet

 facet normal -0.581806 -0.60255 -0.546292
  outer loop
  vertex 3.02982 51.1796 14.3592
  vertex 4.59376 48.8685 15.2427
  vertex 2.61161 50.0411 16.0603
  endloop
 endfacet

 facet normal -0.802898 -0.585715 -0.110871
  outer loop
  vertex 3.02982 51.1796 14.3592
  vertex 4.59376 49.1833 13.5798
  vertex 4.59376 48.8685 15.2427
  endloop
 endfacet

 facet normal -0.969576 0.119153 0.213835
  outer loop
  vertex -7.12961 22.1381 14.0035
  vertex -6.98216 17.0905 17.4847
  vertex -5.77876 21.1397 20.6849
  endloop
 endfacet

 facet normal -0.948148 -0.313255 0.0537226
  outer loop
  vertex -5.65412 -4.47821 32.4817
  vertex -6.57591 -3.36766 22.6887
  vertex -3.10232 -13.2337 26.4657
  endloop
 endfacet

 facet normal 0 -0.939614 -0.342236
  outer loop
  vertex 2.93278 36.3357 10.337
  vertex 4.58845 36.3357 10.337
  vertex 4.59376 32.6434 20.4743
  endloop
 endfacet

 facet normal 1 0 0
  outer loop
  vertex -1.10498 -44.8479 5.16161
  vertex -1.10498 -26.8979 15.1628
  vertex -1.10498 -29.231 17.0861
  endloop
 endfacet

 facet normal 0.999727 -0.011373 0.0204122
  outer loop
  vertex -1.10498 -44.8479 5.16161
  vertex -1.02914 -42.2153 2.9139
  vertex -1.10498 -26.8979 15.1628
  endloop
 endfacet

 facet normal 0 -0.0352496 -0.999379
  outer loop
  vertex 2.72521 48.9817 3.65551
  vertex 4.59376 48.9817 3.65551
  vertex 4.59376 42.7344 3.87586
  endloop
 endfacet

 facet normal -0.903644 -0.387988 0.181364
  outer loop
  vertex -0.954856 -14.212 35.0725
  vertex -5.65412 -4.47821 32.4817
  vertex -3.10232 -13.2337 26.4657
  endloop
 endfacet

 facet normal -0.419509 0.0388602 0.906919
  outer loop
  vertex -0.954856 -14.212 35.0725
  vertex -0.954856 -4.29286 34.6475
  vertex -5.65412 -4.47821 32.4817
  endloop
 endfacet

 facet normal 0.398453 -0.587643 0.70421
  outer loop
  vertex -1.10498 -44.8479 5.16161
  vertex -4.57665 -32.4649 17.4592
  vertex -3.62845 -45.4169 6.11467
  endloop
 endfacet

 facet normal 0.545427 -0.508657 0.666167
  outer loop
  vertex -1.10498 -44.8479 5.16161
  vertex -1.10498 -29.231 17.0861
  vertex -4.57665 -32.4649 17.4592
  endloop
 endfacet

 facet normal -0.406807 0.321163 0.855197
  outer loop
  vertex -0.954856 -4.29286 34.6475
  vertex -3.75611 8.14168 28.6453
  vertex -5.65412 -4.47821 32.4817
  endloop
 endfacet

 facet normal -0.903383 0.00347948 0.42882
  outer loop
  vertex -0.954856 -4.29286 34.6475
  vertex -0.954856 4.37233 34.5772
  vertex -3.75611 8.14168 28.6453
  endloop
 endfacet

 facet normal -0.97483 0.21994 0.0365081
  outer loop
  vertex -3.75611 8.14168 28.6453
  vertex -3.53061 10.769 18.8386
  vertex -6.57591 -3.36766 22.6887
  endloop
 endfacet

 facet normal 0 0.500507 -0.865733
  outer loop
  vertex 2.79049 51.977 5.3872
  vertex 4.59376 51.977 5.3872
  vertex 4.59376 48.9817 3.65551
  endloop
 endfacet

 facet normal 0 0.500507 -0.865733
  outer loop
  vertex 4.59376 48.9817 3.65551
  vertex 2.72521 48.9817 3.65551
  vertex 2.79049 51.977 5.3872
  endloop
 endfacet

 facet normal 0 0.888975 -0.457956
  outer loop
  vertex 2.59633 53.8538 9.03033
  vertex 4.59376 51.977 5.3872
  vertex 2.79049 51.977 5.3872
  endloop
 endfacet

 facet normal -0.925078 -0.145759 0.350693
  outer loop
  vertex -7.82297 31.6587 15.49
  vertex -6.24559 27.372 17.8692
  vertex -6.90857 32.9317 18.4312
  endloop
 endfacet

 facet normal -0.937797 -0.180461 0.2966
  outer loop
  vertex -7.82297 31.6587 15.49
  vertex -7.07057 26.6887 14.845
  vertex -6.24559 27.372 17.8692
  endloop
 endfacet

 facet normal -0.811501 0.222375 -0.540385
  outer loop
  vertex -1.5537 -37.5397 28.3184
  vertex -2.27082 -41.3354 27.8333
  vertex -3.17244 -38.0148 30.5538
  endloop
 endfacet

 facet normal 0 0.939118 0.343594
  outer loop
  vertex 2.61161 52.6449 15.8581
  vertex 4.59376 52.6449 15.8581
  vertex 4.63284 53.5707 13.3276
  endloop
 endfacet

 facet normal -0.271991 0.783557 -0.558622
  outer loop
  vertex -3.10232 -13.2337 26.4657
  vertex -5.96536 -20.4852 17.6883
  vertex -4.71543 -13.721 26.5676
  endloop
 endfacet

 facet normal -0.935159 0.354006 0.0125695
  outer loop
  vertex -3.10232 -13.2337 26.4657
  vertex -3.34129 -13.6977 21.7551
  vertex -5.96536 -20.4852 17.6883
  endloop
 endfacet

 facet normal -0.878673 0.0555944 0.474175
  outer loop
  vertex -3.34129 -13.6977 21.7551
  vertex -4.25335 -12.6907 19.9469
  vertex -5.96536 -20.4852 17.6883
  endloop
 endfacet

 facet normal -0.0536041 -0.217549 0.974576
  outer loop
  vertex 4.59376 -24.8831 34.8888
  vertex -0.954856 -17.776 36.1701
  vertex -0.954856 -24.8831 34.5836
  endloop
 endfacet

 facet normal 0.15073 -0.0602156 0.986739
  outer loop
  vertex 4.59376 -24.8831 34.8888
  vertex 4.59376 -17.776 35.3225
  vertex -0.954856 -17.776 36.1701
  endloop
 endfacet

 facet normal 0.150503 0.0813576 0.985256
  outer loop
  vertex -0.954856 -17.776 36.1701
  vertex 4.59376 -17.776 35.3225
  vertex -0.837917 -17.1427 36.0999
  endloop
 endfacet

 facet normal 0.171473 0.332006 0.927561
  outer loop
  vertex 4.59376 -17.776 35.3225
  vertex -0.954856 -14.212 35.0725
  vertex -0.837917 -17.1427 36.0999
  endloop
 endfacet

 facet normal 0.0678684 0.174551 0.982306
  outer loop
  vertex 4.59376 -17.776 35.3225
  vertex 4.59376 -14.212 34.6892
  vertex -0.954856 -14.212 35.0725
  endloop
 endfacet

 facet normal -0.829706 0.0268875 -0.557553
  outer loop
  vertex -3.53061 10.769 18.8386
  vertex -2.27878 -9.84658 15.9816
  vertex -6.57591 -3.36766 22.6887
  endloop
 endfacet

 facet normal -0.907079 -0.309791 0.285021
  outer loop
  vertex -3.34129 -13.6977 21.7551
  vertex -6.57591 -3.36766 22.6887
  vertex -4.25335 -12.6907 19.9469
  endloop
 endfacet

 facet normal -0.0954621 0.897075 0.431444
  outer loop
  vertex -3.17244 -38.0148 30.5538
  vertex 0.168681 -36.5983 28.3477
  vertex -3.48258 -36.9728 28.3184
  endloop
 endfacet

 facet normal 0.0688637 0.0427077 0.996711
  outer loop
  vertex 4.59376 -14.212 34.6892
  vertex -0.954856 -4.29286 34.6475
  vertex -0.954856 -14.212 35.0725
  endloop
 endfacet

 facet normal -0.0197393 -0.00684259 0.999782
  outer loop
  vertex 4.59376 -14.212 34.6892
  vertex 4.59376 -4.29286 34.7571
  vertex -0.954856 -4.29286 34.6475
  endloop
 endfacet

 facet normal -0.0197391 0.00811225 0.999772
  outer loop
  vertex 4.59376 -4.29286 34.7571
  vertex -0.954856 4.37233 34.5772
  vertex -0.954856 -4.29286 34.6475
  endloop
 endfacet

 facet normal -0.0843967 -0.0333712 0.995873
  outer loop
  vertex 4.59376 -4.29286 34.7571
  vertex 4.59376 4.37233 35.0474
  vertex -0.954856 4.37233 34.5772
  endloop
 endfacet

 facet normal -0.949356 -0.304332 0.0781409
  outer loop
  vertex -3.34129 -13.6977 21.7551
  vertex -3.10232 -13.2337 26.4657
  vertex -6.57591 -3.36766 22.6887
  endloop
 endfacet

 facet normal -0.870579 -0.073819 -0.486459
  outer loop
  vertex -4.25335 -12.6907 19.9469
  vertex -6.57591 -3.36766 22.6887
  vertex -2.27878 -9.84658 15.9816
  endloop
 endfacet

 facet normal 0.265279 -0.0938658 -0.959592
  outer loop
  vertex 8.34537 -13.7479 16.1262
  vertex 6.1313 -23.2038 16.4391
  vertex 1.7581 -24.3397 15.3413
  endloop
 endfacet

 facet normal -0.261099 -0.888279 -0.377873
  outer loop
  vertex -1.5537 -37.5397 28.3184
  vertex -3.17244 -38.0148 30.5538
  vertex -3.48258 -36.9728 28.3184
  endloop
 endfacet

 facet normal 0 0.491914 0.870644
  outer loop
  vertex 4.59376 52.6449 15.8581
  vertex 2.61161 52.6449 15.8581
  vertex 2.61161 50.8983 16.8449
  endloop
 endfacet

 facet normal 0 0.942634 -0.333827
  outer loop
  vertex -3.28875 23.017 25.9857
  vertex -1.13314 21.1397 20.6849
  vertex -5.77876 21.1397 20.6849
  endloop
 endfacet

 facet normal -0.295797 0.856234 -0.423517
  outer loop
  vertex -3.28875 23.017 25.9857
  vertex 4.59376 25.7401 25.9857
  vertex -1.13314 21.1397 20.6849
  endloop
 endfacet

 facet normal -0.659099 0.751948 0.0127687
  outer loop
  vertex -0.0723944 25.7744 29.6252
  vertex -3.28875 23.017 25.9857
  vertex -3.39874 22.8121 32.3701
  endloop
 endfacet

 facet normal 0.32875 -0.305607 -0.893604
  outer loop
  vertex -1.10498 -26.8979 15.1628
  vertex -5.59857 -25.3276 12.9727
  vertex 1.7581 -24.3397 15.3413
  endloop
 endfacet

 facet normal -0.368524 -0.651374 -0.663251
  outer loop
  vertex 1.09631 28.1796 27.9432
  vertex 4.59376 29.6504 24.5553
  vertex 4.59376 26.7273 27.4261
  endloop
 endfacet

 facet normal -0.307565 -0.440412 -0.84347
  outer loop
  vertex 1.09631 28.1796 27.9432
  vertex 4.59376 26.7273 27.4261
  vertex -0.0723944 25.7744 29.6252
  endloop
 endfacet

 facet normal 0.0402126 -0.0254271 -0.998868
  outer loop
  vertex 4.59376 -2.95967 16.083
  vertex -1.15318 -13.7479 16.1262
  vertex -2.27878 -9.84658 15.9816
  endloop
 endfacet

 facet normal 0.823439 0.0420049 -0.565848
  outer loop
  vertex -4.76428 30.4393 12.9063
  vertex -2.84577 26.9564 15.4396
  vertex -4.76428 26.5427 12.6171
  endloop
 endfacet

 facet normal 0.809177 0.0185661 -0.587272
  outer loop
  vertex -4.76428 30.4393 12.9063
  vertex -2.84579 31.6588 15.5883
  vertex -2.84577 26.9564 15.4396
  endloop
 endfacet

 facet normal 0 -0.100561 0.994931
  outer loop
  vertex -6.24559 27.372 17.8692
  vertex -4.96288 32.9317 18.4312
  vertex -6.90857 32.9317 18.4312
  endloop
 endfacet

 facet normal 0 -0.100561 0.994931
  outer loop
  vertex -6.24559 27.372 17.8692
  vertex -3.45128 27.372 17.8692
  vertex -4.96288 32.9317 18.4312
  endloop
 endfacet

 facet normal 0.969982 -0.00767878 0.243056
  outer loop
  vertex -2.84579 31.6588 15.5883
  vertex -3.45128 27.372 17.8692
  vertex -2.84577 26.9564 15.4396
  endloop
 endfacet

 facet normal 0.825306 0.169958 0.538503
  outer loop
  vertex -2.84579 31.6588 15.5883
  vertex -4.96288 32.9317 18.4312
  vertex -3.45128 27.372 17.8692
  endloop
 endfacet

 facet normal -0.798678 -0.535732 -0.274052
  outer loop
  vertex -2.27309 -43.0882 20.3473
  vertex 0.332703 -44.6322 15.7715
  vertex 0.717262 -47.0177 19.314
  endloop
 endfacet

 facet normal -0.751468 -0.622785 -0.217794
  outer loop
  vertex -2.27309 -43.0882 20.3473
  vertex -0.786329 -43.1615 15.427
  vertex 0.332703 -44.6322 15.7715
  endloop
 endfacet

 facet normal -0.885089 0.382895 0.264591
  outer loop
  vertex 2.81984 30.2536 30.7071
  vertex 2.14421 33.8121 23.2976
  vertex 1.09631 28.1796 27.9432
  endloop
 endfacet

 facet normal -0.300237 0.869086 -0.393124
  outer loop
  vertex -0.0723944 25.7744 29.6252
  vertex 4.59376 25.7401 25.9857
  vertex -3.28875 23.017 25.9857
  endloop
 endfacet

 facet normal -0.947317 0.304692 -0.0987606
  outer loop
  vertex -4.71543 -13.721 26.5676
  vertex -5.96536 -20.4852 17.6883
  vertex -6.53624 -19.3641 26.623
  endloop
 endfacet

 facet normal -0.976102 -0.217287 0.00336644
  outer loop
  vertex -5.87144 -20.7587 27.268
  vertex -5.96536 -20.4852 17.6883
  vertex -4.82917 -25.5044 23.1587
  endloop
 endfacet

 facet normal -0.902048 -0.431621 -0.00347866
  outer loop
  vertex -5.87144 -20.7587 27.268
  vertex -6.53624 -19.3641 26.623
  vertex -5.96536 -20.4852 17.6883
  endloop
 endfacet

 facet normal -0.932008 0.202895 -0.300323
  outer loop
  vertex -5.59857 -41.3654 2.13773
  vertex -7.45702 -29.0448 16.2288
  vertex -5.59857 -25.3276 12.9727
  endloop
 endfacet

 facet normal -0.986386 0.0349853 -0.160682
  outer loop
  vertex -5.59857 -41.3654 2.13773
  vertex -6.17391 -45.653 4.73605
  vertex -7.45702 -29.0448 16.2288
  endloop
 endfacet

 facet normal -0.873581 -0.30119 -0.382285
  outer loop
  vertex -0.935451 -36.602 23.0044
  vertex -4.82917 -25.5044 23.1587
  vertex -2.52543 -28.7285 20.4345
  endloop
 endfacet

 facet normal -0.863399 -0.305427 -0.401567
  outer loop
  vertex -0.935451 -36.602 23.0044
  vertex -2.52543 -28.7285 20.4345
  vertex 1.73049 -37.1912 17.7206
  endloop
 endfacet

 facet normal -0.20813 -0.647558 -0.733042
  outer loop
  vertex 1.7581 -24.3397 15.3413
  vertex 4.26563 -29.1609 18.8883
  vertex -2.52543 -28.7285 20.4345
  endloop
 endfacet

 facet normal -0.204979 0.203914 -0.957289
  outer loop
  vertex 1.73049 -37.1912 17.7206
  vertex -2.52543 -28.7285 20.4345
  vertex 4.26563 -29.1609 18.8883
  endloop
 endfacet

 facet normal -0.845883 -0.275317 0.456818
  outer loop
  vertex -2.01874 12.4796 34.4768
  vertex -7.09939 11.421 24.431
  vertex -3.75611 8.14168 28.6453
  endloop
 endfacet

 facet normal -0.754255 -0.502367 -0.422761
  outer loop
  vertex -7.09939 11.421 24.431
  vertex -6.98216 17.0905 17.4847
  vertex -3.53061 10.769 18.8386
  endloop
 endfacet

 facet normal -0.515463 -0.824685 -0.232794
  outer loop
  vertex -3.75611 8.14168 28.6453
  vertex -7.09939 11.421 24.431
  vertex -3.53061 10.769 18.8386
  endloop
 endfacet

 facet normal 0.251937 -0.268395 0.929781
  outer loop
  vertex 4.59376 -43.4586 29.5267
  vertex 7.93819 -38.6143 30.0188
  vertex 4.59376 -24.8831 34.8888
  endloop
 endfacet

 facet normal 0.861395 -0.300564 0.409464
  outer loop
  vertex 10.1424 -24.8831 34.5836
  vertex 9.01884 -36.5983 28.3477
  vertex 15.059 -20.7587 27.268
  endloop
 endfacet

 facet normal 0.921989 -0.247107 0.298118
  outer loop
  vertex 10.1424 -24.8831 34.5836
  vertex 7.93819 -38.6143 30.0188
  vertex 9.01884 -36.5983 28.3477
  endloop
 endfacet

 facet normal 0.925877 -0.342138 0.160292
  outer loop
  vertex 9.01884 -36.5983 28.3477
  vertex 14.0167 -25.5044 23.1587
  vertex 15.059 -20.7587 27.268
  endloop
 endfacet

 facet normal 0.925319 -0.327324 0.191426
  outer loop
  vertex 9.01884 -36.5983 28.3477
  vertex 10.123 -36.602 23.0044
  vertex 14.0167 -25.5044 23.1587
  endloop
 endfacet

 facet normal -0.966246 0.20733 0.152915
  outer loop
  vertex -3.39874 22.8121 32.3701
  vertex -6.98216 17.0905 17.4847
  vertex -7.09939 11.421 24.431
  endloop
 endfacet

 facet normal -0.972845 0.149425 0.176761
  outer loop
  vertex -3.39874 22.8121 32.3701
  vertex -5.77876 21.1397 20.6849
  vertex -6.98216 17.0905 17.4847
  endloop
 endfacet

 facet normal -0.621337 0.783411 0.0144286
  outer loop
  vertex -3.39874 22.8121 32.3701
  vertex -3.28875 23.017 25.9857
  vertex -5.77876 21.1397 20.6849
  endloop
 endfacet

 facet normal -0.3988 0.75643 -0.518432
  outer loop
  vertex 4.59376 26.7273 27.4261
  vertex 4.59376 25.7401 25.9857
  vertex -0.0723944 25.7744 29.6252
  endloop
 endfacet

 facet normal -0.292883 0.319695 0.901119
  outer loop
  vertex 4.59376 21.6523 34.3352
  vertex 2.81984 30.2536 30.7071
  vertex 0.425661 24.7203 31.8921
  endloop
 endfacet

 facet normal 0.948148 -0.313255 0.0537226
  outer loop
  vertex 15.7634 -3.36766 22.6887
  vertex 14.8416 -4.47821 32.4817
  vertex 12.2898 -13.2337 26.4657
  endloop
 endfacet

 facet normal -0.227579 -0.785232 -0.575863
  outer loop
  vertex 1.09631 28.1796 27.9432
  vertex 4.59376 32.6434 20.4743
  vertex 4.59376 29.6504 24.5553
  endloop
 endfacet

 facet normal -0.77809 -0.307162 -0.54793
  outer loop
  vertex 1.09631 28.1796 27.9432
  vertex 2.14421 33.8121 23.2976
  vertex 4.59376 32.6434 20.4743
  endloop
 endfacet

 facet normal 0 0.411728 0.911307
  outer loop
  vertex -3.45128 27.372 17.8692
  vertex -5.77876 21.1397 20.6849
  vertex -1.13314 21.1397 20.6849
  endloop
 endfacet

 facet normal 0 0.411728 0.911307
  outer loop
  vertex -3.45128 27.372 17.8692
  vertex -6.24559 27.372 17.8692
  vertex -5.77876 21.1397 20.6849
  endloop
 endfacet

 facet normal -0.288694 -0.549272 -0.784191
  outer loop
  vertex -7.12961 22.1381 14.0035
  vertex -2.38123 22.1381 12.2554
  vertex -6.98216 17.0905 17.4847
  endloop
 endfacet

 facet normal -0.671313 -0.735122 0.0945191
  outer loop
  vertex 0.69473 -48.2668 23.1284
  vertex 0.69473 -48.0768 24.6064
  vertex -1.90668 -45.7062 24.5673
  endloop
 endfacet

 facet normal -0.786557 -0.613966 -0.0661351
  outer loop
  vertex -0.786329 -43.1615 15.427
  vertex 2.68104 -47.3279 12.8677
  vertex 0.332703 -44.6322 15.7715
  endloop
 endfacet

 facet normal -0.950195 -0.294477 -0.102047
  outer loop
  vertex 0.717262 -47.0177 19.314
  vertex 2.35893 -51.6845 17.4949
  vertex 0.69473 -48.2668 23.1284
  endloop
 endfacet

 facet normal -0.32336 -0.440243 0.83763
  outer loop
  vertex 0.717262 -47.0177 19.314
  vertex 0.59681 -51.0593 17.1433
  vertex 2.35893 -51.6845 17.4949
  endloop
 endfacet

 facet normal -0.928617 0.180116 -0.32439
  outer loop
  vertex -6.23435 -24.3397 15.3413
  vertex -5.59857 -25.3276 12.9727
  vertex -7.45702 -29.0448 16.2288
  endloop
 endfacet

 facet normal -0.0836882 -0.133466 0.987514
  outer loop
  vertex 4.59376 12.2363 36.1103
  vertex -0.954856 4.37233 34.5772
  vertex 4.59376 4.37233 35.0474
  endloop
 endfacet

 facet normal -0.240455 -0.0195316 0.970464
  outer loop
  vertex 4.59376 12.2363 36.1103
  vertex -2.01874 12.4796 34.4768
  vertex -0.954856 4.37233 34.5772
  endloop
 endfacet

 facet normal -0.924666 -0.11685 0.362408
  outer loop
  vertex -3.75611 8.14168 28.6453
  vertex -0.954856 4.37233 34.5772
  vertex -2.01874 12.4796 34.4768
  endloop
 endfacet

 facet normal 0.849102 -0.115081 0.515541
  outer loop
  vertex 10.1424 -24.8831 34.5836
  vertex 15.7238 -19.3641 26.623
  vertex 10.1424 -17.776 36.1701
  endloop
 endfacet

 facet normal 0.861301 -0.193219 0.469922
  outer loop
  vertex 10.1424 -24.8831 34.5836
  vertex 15.059 -20.7587 27.268
  vertex 15.7238 -19.3641 26.623
  endloop
 endfacet

 facet normal 0.826277 0.210437 0.522477
  outer loop
  vertex 10.1424 -17.776 36.1701
  vertex 15.1815 -13.721 26.5676
  vertex 10.0254 -17.1427 36.0999
  endloop
 endfacet

 facet normal 0.866255 0.088063 0.491779
  outer loop
  vertex 10.1424 -17.776 36.1701
  vertex 15.7238 -19.3641 26.623
  vertex 15.1815 -13.721 26.5676
  endloop
 endfacet

 facet normal 0.967845 0.0479461 0.246935
  outer loop
  vertex 10.0254 -17.1427 36.0999
  vertex 12.2898 -13.2337 26.4657
  vertex 10.1424 -14.212 35.0725
  endloop
 endfacet

 facet normal 0.138558 0.90592 0.400138
  outer loop
  vertex 10.0254 -17.1427 36.0999
  vertex 15.1815 -13.721 26.5676
  vertex 12.2898 -13.2337 26.4657
  endloop
 endfacet

 facet normal 0.983697 0.143167 0.108828
  outer loop
  vertex 14.8416 -4.47821 32.4817
  vertex 15.7634 -3.36766 22.6887
  vertex 13.0359 10.845 28.6453
  endloop
 endfacet

 facet normal 0.419509 0.0388602 0.906919
  outer loop
  vertex 10.1424 -14.212 35.0725
  vertex 14.8416 -4.47821 32.4817
  vertex 10.1424 -4.29286 34.6475
  endloop
 endfacet

 facet normal 0.903644 -0.387988 0.181364
  outer loop
  vertex 10.1424 -14.212 35.0725
  vertex 12.2898 -13.2337 26.4657
  vertex 14.8416 -4.47821 32.4817
  endloop
 endfacet

 facet normal 0.89722 0.00358294 0.441569
  outer loop
  vertex 10.1424 -4.29286 34.6475
  vertex 13.0359 10.845 28.6453
  vertex 10.1424 4.37233 34.5772
  endloop
 endfacet

 facet normal 0.412059 0.266691 0.871254
  outer loop
  vertex 10.1424 -4.29286 34.6475
  vertex 14.8416 -4.47821 32.4817
  vertex 13.0359 10.845 28.6453
  endloop
 endfacet

 facet normal 0.978861 0.2018 -0.033288
  outer loop
  vertex 13.0359 10.845 28.6453
  vertex 15.7634 -3.36766 22.6887
  vertex 12.7181 10.769 18.8386
  endloop
 endfacet

 facet normal 0.167851 0.984172 -0.0568546
  outer loop
  vertex 12.2898 -13.2337 26.4657
  vertex 15.1815 -13.721 26.5676
  vertex 13.415 -13.6977 21.7551
  endloop
 endfacet

 facet normal 0 0.873659 0.486539
  outer loop
  vertex 13.415 -13.6977 21.7551
  vertex 14.4776 -12.6907 19.9469
  vertex 13.4409 -12.6907 19.9469
  endloop
 endfacet

 facet normal -0.15073 -0.0602156 0.986739
  outer loop
  vertex 4.59376 -24.8831 34.8888
  vertex 10.1424 -17.776 36.1701
  vertex 4.59376 -17.776 35.3225
  endloop
 endfacet

 facet normal 0.0536041 -0.217549 0.974576
  outer loop
  vertex 4.59376 -24.8831 34.8888
  vertex 10.1424 -24.8831 34.5836
  vertex 10.1424 -17.776 36.1701
  endloop
 endfacet

 facet normal -0.150503 0.0813576 0.985256
  outer loop
  vertex 4.59376 -17.776 35.3225
  vertex 10.1424 -17.776 36.1701
  vertex 10.0254 -17.1427 36.0999
  endloop
 endfacet

 facet normal -0.0678684 0.174551 0.982306
  outer loop
  vertex 4.59376 -17.776 35.3225
  vertex 10.1424 -14.212 35.0725
  vertex 4.59376 -14.212 34.6892
  endloop
 endfacet

 facet normal -0.171473 0.332006 0.927561
  outer loop
  vertex 4.59376 -17.776 35.3225
  vertex 10.0254 -17.1427 36.0999
  vertex 10.1424 -14.212 35.0725
  endloop
 endfacet

 facet normal 0.838091 0.032228 -0.544577
  outer loop
  vertex 12.7181 10.769 18.8386
  vertex 15.7634 -3.36766 22.6887
  vertex 11.4663 -9.84658 15.6921
  endloop
 endfacet

 facet normal 0.971829 -0.21154 -0.103924
  outer loop
  vertex 13.415 -13.6977 21.7551
  vertex 13.4409 -12.6907 19.9469
  vertex 15.7634 -3.36766 22.6887
  endloop
 endfacet

 facet normal 0 0.831364 0.555728
  outer loop
  vertex 13.4409 -12.6907 19.9469
  vertex 14.4776 -12.6907 19.9469
  vertex 11.4663 -9.84658 15.6921
  endloop
 endfacet

 facet normal 0.0197393 -0.00684259 0.999782
  outer loop
  vertex 4.59376 -14.212 34.6892
  vertex 10.1424 -4.29286 34.6475
  vertex 4.59376 -4.29286 34.7571
  endloop
 endfacet

 facet normal -0.0688637 0.0427077 0.996711
  outer loop
  vertex 4.59376 -14.212 34.6892
  vertex 10.1424 -14.212 35.0725
  vertex 10.1424 -4.29286 34.6475
  endloop
 endfacet

 facet normal 0.0843967 -0.0333712 0.995873
  outer loop
  vertex 4.59376 -4.29286 34.7571
  vertex 10.1424 4.37233 34.5772
  vertex 4.59376 4.37233 35.0474
  endloop
 endfacet

 facet normal 0.0197391 0.00811225 0.999772
  outer loop
  vertex 4.59376 -4.29286 34.7571
  vertex 10.1424 -4.29286 34.6475
  vertex 10.1424 4.37233 34.5772
  endloop
 endfacet

 facet normal 0.939653 -0.236004 0.247697
  outer loop
  vertex 13.415 -13.6977 21.7551
  vertex 15.7634 -3.36766 22.6887
  vertex 12.2898 -13.2337 26.4657
  endloop
 endfacet

 facet normal 0.999986 0.0043755 -0.00298816
  outer loop
  vertex 14.4776 -12.6907 19.9469
  vertex 14.4253 -8.45637 8.64126
  vertex 14.4253 -6.29878 11.8006
  endloop
 endfacet

 facet normal 0.996554 0.0790856 0.0250093
  outer loop
  vertex 14.4776 -12.6907 19.9469
  vertex 15.1529 -20.4852 17.6883
  vertex 14.4253 -8.45637 8.64126
  endloop
 endfacet

 facet normal -0.597478 -0.257263 -0.759497
  outer loop
  vertex 11.738 18.2899 11.2136
  vertex 7.35506 8.0656 18.1248
  vertex 10.2218 21.4056 11.3509
  endloop
 endfacet

 facet normal 0.40389 -0.624809 -0.668196
  outer loop
  vertex 11.738 18.2899 11.2136
  vertex 12.7181 10.769 18.8386
  vertex 7.35506 8.0656 18.1248
  endloop
 endfacet

 facet normal -0.768764 -0.218703 0.600975
  outer loop
  vertex 10.517 19.9959 3.58146
  vertex 12.757 13.215 3.9791
  vertex 12.368 17.8376 5.16372
  endloop
 endfacet

 facet normal -0.304247 -0.044702 0.951544
  outer loop
  vertex 10.517 19.9959 3.58146
  vertex 9.33278 16.494 3.03829
  vertex 12.757 13.215 3.9791
  endloop
 endfacet

 facet normal 1.86924e-09 0.862221 0.506533
  outer loop
  vertex 14.9645 21.2788 17.6131
  vertex 11.9366 24.3058 12.4606
  vertex 9.47886 21.2788 17.6131
  endloop
 endfacet

 facet normal 2.41364e-07 0.862221 0.506533
  outer loop
  vertex 14.9645 21.2788 17.6131
  vertex 13.8823 24.3058 12.4606
  vertex 11.9366 24.3058 12.4606
  endloop
 endfacet

 facet normal -6.26534e-17 0.882535 -0.470246
  outer loop
  vertex 14.3255 25.7401 25.9857
  vertex 9.47886 21.2788 17.6131
  vertex 4.59376 25.7401 25.9857
  endloop
 endfacet

 facet normal 1.81485e-10 0.882535 -0.470246
  outer loop
  vertex 14.3255 25.7401 25.9857
  vertex 14.9645 21.2788 17.6131
  vertex 9.47886 21.2788 17.6131
  endloop
 endfacet

 facet normal -1.23285e-06 0.95638 -0.292127
  outer loop
  vertex 13.8823 24.3058 12.4606
  vertex 11.3928 21.4947 3.25771
  vertex 11.9366 24.3058 12.4606
  endloop
 endfacet

 facet normal -1.09487e-06 0.95638 -0.292127
  outer loop
  vertex 13.8823 24.3058 12.4606
  vertex 12.9216 21.4947 3.25771
  vertex 11.3928 21.4947 3.25771
  endloop
 endfacet

 facet normal 0 -0.467437 -0.884026
  outer loop
  vertex 14.4253 -8.45637 8.64126
  vertex 6.1313 -23.2038 16.4391
  vertex 10.7882 -8.45637 8.64126
  endloop
 endfacet

 facet normal 0.278139 -0.566563 -0.775658
  outer loop
  vertex 14.4253 -8.45637 8.64126
  vertex 15.1529 -20.4852 17.6883
  vertex 6.1313 -23.2038 16.4391
  endloop
 endfacet

 facet normal 8.88235e-09 0.990386 -0.138329
  outer loop
  vertex 12.9216 21.4947 3.25771
  vertex 11.2685 21.0397 0
  vertex 11.3928 21.4947 3.25771
  endloop
 endfacet

 facet normal 7.89543e-09 0.990386 -0.138329
  outer loop
  vertex 12.9216 21.4947 3.25771
  vertex 13.8823 21.0397 0
  vertex 11.2685 21.0397 0
  endloop
 endfacet

 facet normal -0.922748 0.134326 -0.361239
  outer loop
  vertex 11.9366 24.3058 12.4606
  vertex 7.35506 8.0656 18.1248
  vertex 9.47886 21.2788 17.6131
  endloop
 endfacet

 facet normal -0.856493 0.367896 0.362039
  outer loop
  vertex 11.9366 24.3058 12.4606
  vertex 10.2218 21.4056 11.3509
  vertex 7.35506 8.0656 18.1248
  endloop
 endfacet

 facet normal -0.835201 0.537803 -0.114924
  outer loop
  vertex 11.3928 21.4947 3.25771
  vertex 10.2218 21.4056 11.3509
  vertex 11.9366 24.3058 12.4606
  endloop
 endfacet

 facet normal -0.868231 0.481349 -0.120324
  outer loop
  vertex 11.3928 21.4947 3.25771
  vertex 10.517 19.9959 3.58146
  vertex 10.2218 21.4056 11.3509
  endloop
 endfacet

 facet normal 0.97645 0.137824 -0.165982
  outer loop
  vertex -2.84577 26.9564 15.4396
  vertex -1.13314 21.1397 20.6849
  vertex -1.75171 21.7881 17.5843
  endloop
 endfacet

 facet normal 0.900935 0.405243 0.155226
  outer loop
  vertex -2.84577 26.9564 15.4396
  vertex -3.45128 27.372 17.8692
  vertex -1.13314 21.1397 20.6849
  endloop
 endfacet

 facet normal -0.293627 0.932531 0.210165
  outer loop
  vertex 10.517 19.9959 3.58146
  vertex 11.2685 21.0397 0
  vertex 8.84318 20.2761 0
  endloop
 endfacet

 facet normal -0.866243 0.498284 -0.0365442
  outer loop
  vertex 10.517 19.9959 3.58146
  vertex 11.3928 21.4947 3.25771
  vertex 11.2685 21.0397 0
  endloop
 endfacet

 facet normal -0.898175 0.101646 0.427725
  outer loop
  vertex 8.24782 15.0152 0
  vertex 10.517 19.9959 3.58146
  vertex 8.84318 20.2761 0
  endloop
 endfacet

 facet normal -0.937856 0.286863 0.195286
  outer loop
  vertex 8.24782 15.0152 0
  vertex 9.33278 16.494 3.03829
  vertex 10.517 19.9959 3.58146
  endloop
 endfacet

 facet normal 0 0 -1
  outer loop
  vertex 12.757 11.292 0
  vertex 8.24782 15.0152 0
  vertex 14.6098 15.0152 0
  endloop
 endfacet

 facet normal 0 0 -1
  outer loop
  vertex 13.8823 21.0397 0
  vertex 8.84318 20.2761 0
  vertex 11.2685 21.0397 0
  endloop
 endfacet

 facet normal 0 0 -1
  outer loop
  vertex 8.84318 20.2761 0
  vertex 14.6098 15.0152 0
  vertex 8.24782 15.0152 0
  endloop
 endfacet

 facet normal 0 0 -1
  outer loop
  vertex 8.84318 20.2761 0
  vertex 13.8823 21.0397 0
  vertex 14.6098 15.0152 0
  endloop
 endfacet

 facet normal 0.992659 0.0946499 -0.0753025
  outer loop
  vertex 15.1815 -13.721 26.5676
  vertex 15.7238 -19.3641 26.623
  vertex 15.1529 -20.4852 17.6883
  endloop
 endfacet

 facet normal 0.902048 -0.431621 -0.00347866
  outer loop
  vertex 15.059 -20.7587 27.268
  vertex 15.1529 -20.4852 17.6883
  vertex 15.7238 -19.3641 26.623
  endloop
 endfacet

 facet normal 0.976102 -0.217287 0.00336644
  outer loop
  vertex 15.059 -20.7587 27.268
  vertex 14.0167 -25.5044 23.1587
  vertex 15.1529 -20.4852 17.6883
  endloop
 endfacet

 facet normal 0.242005 -0.396066 -0.885757
  outer loop
  vertex 15.1529 -20.4852 17.6883
  vertex 11.713 -28.7285 20.4345
  vertex 6.1313 -23.2038 16.4391
  endloop
 endfacet

 facet normal 0.872039 -0.437195 -0.220019
  outer loop
  vertex 15.1529 -20.4852 17.6883
  vertex 14.0167 -25.5044 23.1587
  vertex 11.713 -28.7285 20.4345
  endloop
 endfacet

 facet normal 0.873581 -0.30119 -0.382285
  outer loop
  vertex 14.0167 -25.5044 23.1587
  vertex 10.123 -36.602 23.0044
  vertex 11.713 -28.7285 20.4345
  endloop
 endfacet

 facet normal 0.79403 -0.3275 -0.512113
  outer loop
  vertex 10.123 -36.602 23.0044
  vertex 6.47212 -37.1912 17.7206
  vertex 11.713 -28.7285 20.4345
  endloop
 endfacet

 facet normal 0.207526 -0.426868 -0.88018
  outer loop
  vertex 6.1313 -23.2038 16.4391
  vertex 11.713 -28.7285 20.4345
  vertex 4.26563 -29.1609 18.8883
  endloop
 endfacet

 facet normal 0.188813 0.191925 -0.963075
  outer loop
  vertex 11.713 -28.7285 20.4345
  vertex 6.47212 -37.1912 17.7206
  vertex 4.26563 -29.1609 18.8883
  endloop
 endfacet

 facet normal 0.709665 -0.588351 0.387582
  outer loop
  vertex 11.2063 12.4796 34.4768
  vertex 13.0359 10.845 28.6453
  vertex 16.2869 11.9901 24.431
  endloop
 endfacet

 facet normal 0.503838 -0.853147 -0.13523
  outer loop
  vertex 16.2869 11.9901 24.431
  vertex 12.7181 10.769 18.8386
  vertex 18.4813 14.3871 17.4847
  endloop
 endfacet

 facet normal 0.328396 -0.944534 -0.00331467
  outer loop
  vertex 13.0359 10.845 28.6453
  vertex 12.7181 10.769 18.8386
  vertex 16.2869 11.9901 24.431
  endloop
 endfacet

 facet normal 0.941709 0.0828093 0.326078
  outer loop
  vertex 12.5863 22.8121 32.3701
  vertex 16.2869 11.9901 24.431
  vertex 18.4813 14.3871 17.4847
  endloop
 endfacet

 facet normal 0.965769 -0.19103 0.175493
  outer loop
  vertex 12.5863 22.8121 32.3701
  vertex 14.9645 21.2788 17.6131
  vertex 14.3255 25.7401 25.9857
  endloop
 endfacet

 facet normal 0.887326 0.451009 0.0961409
  outer loop
  vertex 12.5863 22.8121 32.3701
  vertex 18.4813 14.3871 17.4847
  vertex 14.9645 21.2788 17.6131
  endloop
 endfacet

 facet normal 0.888547 0.451954 0.0788783
  outer loop
  vertex 14.9645 21.2788 17.6131
  vertex 18.4813 14.3871 17.4847
  vertex 13.8823 24.3058 12.4606
  endloop
 endfacet

 facet normal 0.913233 0.405975 -0.0344915
  outer loop
  vertex 13.8823 24.3058 12.4606
  vertex 18.4813 14.3871 17.4847
  vertex 15.1259 21.4056 11.2527
  endloop
 endfacet

 facet normal 0.861489 0.453485 -0.228446
  outer loop
  vertex 13.8823 24.3058 12.4606
  vertex 13.8823 19.9959 3.90517
  vertex 12.9216 21.4947 3.25771
  endloop
 endfacet

 facet normal 0.854598 0.463769 -0.233627
  outer loop
  vertex 13.8823 24.3058 12.4606
  vertex 15.1259 21.4056 11.2527
  vertex 13.8823 19.9959 3.90517
  endloop
 endfacet

 facet normal 0.845261 -0.519082 0.126833
  outer loop
  vertex 13.8823 19.9959 3.90517
  vertex 11.738 18.2899 11.2136
  vertex 12.368 17.8376 5.16372
  endloop
 endfacet

 facet normal 0.676498 -0.73596 0.0266928
  outer loop
  vertex 13.8823 19.9959 3.90517
  vertex 15.1259 21.4056 11.2527
  vertex 11.738 18.2899 11.2136
  endloop
 endfacet

 facet normal 0.0447829 0.17106 -0.984242
  outer loop
  vertex 12.7181 10.769 18.8386
  vertex 4.59376 -2.95967 16.083
  vertex 7.35506 8.0656 18.1248
  endloop
 endfacet

 facet normal -0.138248 0.115625 -0.983625
  outer loop
  vertex -3.53061 10.769 18.8386
  vertex 1.0634 9.78076 18.0768
  vertex 4.59376 -2.95967 16.083
  endloop
 endfacet

 facet normal 0.79998 0.579677 0.15494
  outer loop
  vertex 12.9216 21.4947 3.25771
  vertex 13.8823 19.9959 3.90517
  vertex 13.8823 21.0397 0
  endloop
 endfacet

 facet normal 0.991103 0.119678 -0.0582482
  outer loop
  vertex 13.8823 21.0397 0
  vertex 14.6098 16.494 3.03829
  vertex 14.6098 15.0152 0
  endloop
 endfacet

 facet normal 0.980262 0.190997 0.0510511
  outer loop
  vertex 13.8823 21.0397 0
  vertex 13.8823 19.9959 3.90517
  vertex 14.6098 16.494 3.03829
  endloop
 endfacet

 facet normal 0.725365 -0.112972 0.679031
  outer loop
  vertex 12.757 13.215 3.9791
  vertex 13.8823 19.9959 3.90517
  vertex 12.368 17.8376 5.16372
  endloop
 endfacet

 facet normal 0.566759 -0.0851204 0.819475
  outer loop
  vertex 12.757 13.215 3.9791
  vertex 14.6098 16.494 3.03829
  vertex 13.8823 19.9959 3.90517
  endloop
 endfacet

 facet normal 0.874944 -0.435394 0.211909
  outer loop
  vertex 14.6098 16.494 3.03829
  vertex 12.757 11.292 0
  vertex 14.6098 15.0152 0
  endloop
 endfacet

 facet normal 0.875791 -0.434599 0.210032
  outer loop
  vertex 14.6098 16.494 3.03829
  vertex 12.757 13.215 3.9791
  vertex 12.757 11.292 0
  endloop
 endfacet

 facet normal 0.240455 -0.0195316 0.970464
  outer loop
  vertex 4.59376 12.2363 36.1103
  vertex 10.1424 4.37233 34.5772
  vertex 11.2063 12.4796 34.4768
  endloop
 endfacet

 facet normal 0.0836882 -0.133466 0.987514
  outer loop
  vertex 4.59376 12.2363 36.1103
  vertex 4.59376 4.37233 35.0474
  vertex 10.1424 4.37233 34.5772
  endloop
 endfacet

 facet normal 0.937353 -0.118948 0.327444
  outer loop
  vertex 13.0359 10.845 28.6453
  vertex 11.2063 12.4796 34.4768
  vertex 10.1424 4.37233 34.5772
  endloop
 endfacet

 facet normal 0.212326 0.167917 0.962664
  outer loop
  vertex 4.59376 21.6523 34.3352
  vertex 11.2063 12.4796 34.4768
  vertex 12.5863 22.8121 32.3701
  endloop
 endfacet

 facet normal 0.229634 0.180298 0.956431
  outer loop
  vertex 4.59376 21.6523 34.3352
  vertex 4.59376 12.2363 36.1103
  vertex 11.2063 12.4796 34.4768
  endloop
 endfacet

 facet normal 0.139286 0.49415 0.858146
  outer loop
  vertex 4.59376 21.6523 34.3352
  vertex 12.5863 22.8121 32.3701
  vertex 8.76186 24.7203 31.8921
  endloop
 endfacet

 facet normal 0.350669 0.817358 0.457119
  outer loop
  vertex 9.25991 25.7744 29.6252
  vertex 8.76186 24.7203 31.8921
  vertex 12.5863 22.8121 32.3701
  endloop
 endfacet

 facet normal 0.527366 0.746131 0.406416
  outer loop
  vertex 6.36768 30.2536 30.7071
  vertex 7.04331 33.8121 23.2976
  vertex 4.59376 36.612 21.3357
  endloop
 endfacet

 facet normal 0.591261 0.740736 0.318938
  outer loop
  vertex 4.59376 36.612 21.3357
  vertex 7.04331 33.8121 23.2976
  vertex 7.25135 38.9468 10.9864
  endloop
 endfacet

 facet normal 0.495885 0.707015 0.50421
  outer loop
  vertex 4.59376 42.6733 8.37485
  vertex 7.25135 38.9468 10.9864
  vertex 7.17632 41.8997 6.91957
  endloop
 endfacet

 facet normal 0.357948 0.886909 0.292003
  outer loop
  vertex 4.59376 36.612 21.3357
  vertex 7.25135 38.9468 10.9864
  vertex 4.59376 39.9208 11.286
  endloop
 endfacet

 facet normal 0.53696 0.341369 0.771454
  outer loop
  vertex 4.59376 42.6733 8.37485
  vertex 7.17632 41.8997 6.91957
  vertex 7.10652 45.8807 5.20659
  endloop
 endfacet

 facet normal 0.615251 0.055242 0.786393
  outer loop
  vertex 4.59376 42.6733 8.37485
  vertex 7.1738 50.2083 5.82698
  vertex 4.59376 49.4177 7.90107
  endloop
 endfacet

 facet normal 0.823786 -0.0929746 0.559225
  outer loop
  vertex 4.59376 42.6733 8.37485
  vertex 7.10652 45.8807 5.20659
  vertex 7.1738 50.2083 5.82698
  endloop
 endfacet

 facet normal 0.539824 -0.81164 0.223227
  outer loop
  vertex 4.59376 49.4177 7.90107
  vertex 7.16203 52.3305 12.2813
  vertex 4.59376 50.5481 12.0113
  endloop
 endfacet

 facet normal 0.477088 -0.834625 0.275296
  outer loop
  vertex 4.59376 49.4177 7.90107
  vertex 7.1738 50.2083 5.82698
  vertex 7.16203 52.3305 12.2813
  endloop
 endfacet

 facet normal 0.958762 0.270505 -0.0871945
  outer loop
  vertex 7.16203 52.3305 12.2813
  vertex 7.1738 50.2083 5.82698
  vertex 6.44365 53.8288 9.03033
  endloop
 endfacet

 facet normal 0.905734 0.368284 -0.209793
  outer loop
  vertex 6.44365 53.8288 9.03033
  vertex 7.1738 50.2083 5.82698
  vertex 6.35277 51.977 5.3872
  endloop
 endfacet

 facet normal 0.591455 -0.783963 -0.188634
  outer loop
  vertex 6.25474 36.3357 10.337
  vertex 7.04331 33.8121 23.2976
  vertex 4.59376 32.6434 20.4743
  endloop
 endfacet

 facet normal 0.93706 -0.327606 -0.120804
  outer loop
  vertex 7.04331 33.8121 23.2976
  vertex 6.25474 36.3357 10.337
  vertex 7.25135 38.9468 10.9864
  endloop
 endfacet

 facet normal 0.875617 0.427146 0.225479
  outer loop
  vertex 8.76186 24.7203 31.8921
  vertex 8.09121 28.1796 27.9432
  vertex 6.36768 30.2536 30.7071
  endloop
 endfacet

 facet normal 0.654505 0.620311 0.432247
  outer loop
  vertex 8.76186 24.7203 31.8921
  vertex 9.25991 25.7744 29.6252
  vertex 8.09121 28.1796 27.9432
  endloop
 endfacet

 facet normal 0.891515 -0.0268738 0.452193
  outer loop
  vertex 16.2869 11.9901 24.431
  vertex 12.5863 22.8121 32.3701
  vertex 11.2063 12.4796 34.4768
  endloop
 endfacet

 facet normal -0.695132 -0.0119555 -0.718783
  outer loop
  vertex -7.82297 31.6587 15.49
  vertex -4.76428 26.5427 12.6171
  vertex -7.07057 26.6887 14.845
  endloop
 endfacet

 facet normal -0.630768 0.0574451 -0.773842
  outer loop
  vertex -7.82297 31.6587 15.49
  vertex -4.76428 30.4393 12.9063
  vertex -4.76428 26.5427 12.6171
  endloop
 endfacet

 facet normal 0.944256 0.0322858 -0.327626
  outer loop
  vertex 7.1738 50.2083 5.82698
  vertex 7.10652 45.8807 5.20659
  vertex 6.46231 48.9817 3.65551
  endloop
 endfacet

 facet normal 0.851209 0.285664 -0.440272
  outer loop
  vertex 6.46231 48.9817 3.65551
  vertex 6.35277 51.977 5.3872
  vertex 7.1738 50.2083 5.82698
  endloop
 endfacet

 facet normal 0.931018 0.0109372 -0.364809
  outer loop
  vertex 6.46231 48.9817 3.65551
  vertex 7.10652 45.8807 5.20659
  vertex 6.62205 42.7344 3.87586
  endloop
 endfacet

 facet normal 0.953296 -0.198163 -0.227942
  outer loop
  vertex 6.62205 42.7344 3.87586
  vertex 7.17632 41.8997 6.91957
  vertex 6.40155 38.199 6.89658
  endloop
 endfacet

 facet normal 0.978156 -0.0674555 -0.196625
  outer loop
  vertex 6.62205 42.7344 3.87586
  vertex 7.10652 45.8807 5.20659
  vertex 7.17632 41.8997 6.91957
  endloop
 endfacet

 facet normal 0.96575 -0.201168 -0.163883
  outer loop
  vertex 7.25135 38.9468 10.9864
  vertex 6.40155 38.199 6.89658
  vertex 7.17632 41.8997 6.91957
  endloop
 endfacet

 facet normal 0.936413 -0.323734 -0.135378
  outer loop
  vertex 7.25135 38.9468 10.9864
  vertex 6.25474 36.3357 10.337
  vertex 6.40155 38.199 6.89658
  endloop
 endfacet

 facet normal 0.325066 0.687167 0.649718
  outer loop
  vertex 4.59376 39.9208 11.286
  vertex 7.25135 38.9468 10.9864
  vertex 4.59376 42.6733 8.37485
  endloop
 endfacet

 facet normal 0 0.827507 0.561455
  outer loop
  vertex 6.36768 30.2536 30.7071
  vertex 4.59376 36.612 21.3357
  vertex 2.81984 30.2536 30.7071
  endloop
 endfacet

 facet normal 0 0.388647 0.921387
  outer loop
  vertex 6.36768 30.2536 30.7071
  vertex 2.81984 30.2536 30.7071
  vertex 4.59376 21.6523 34.3352
  endloop
 endfacet

 facet normal -0.229634 0.180298 0.956431
  outer loop
  vertex 4.59376 21.6523 34.3352
  vertex -2.01874 12.4796 34.4768
  vertex 4.59376 12.2363 36.1103
  endloop
 endfacet

 facet normal -0.212326 0.167917 0.962664
  outer loop
  vertex 4.59376 21.6523 34.3352
  vertex -3.39874 22.8121 32.3701
  vertex -2.01874 12.4796 34.4768
  endloop
 endfacet

 facet normal -0.139286 0.49415 0.858146
  outer loop
  vertex 4.59376 21.6523 34.3352
  vertex 0.425661 24.7203 31.8921
  vertex -3.39874 22.8121 32.3701
  endloop
 endfacet

 facet normal -0.350669 0.817358 0.457119
  outer loop
  vertex -0.0723944 25.7744 29.6252
  vertex -3.39874 22.8121 32.3701
  vertex 0.425661 24.7203 31.8921
  endloop
 endfacet

 facet normal -0.527366 0.746131 0.406416
  outer loop
  vertex 2.81984 30.2536 30.7071
  vertex 4.59376 36.612 21.3357
  vertex 2.14421 33.8121 23.2976
  endloop
 endfacet

 facet normal -0.591261 0.740736 0.318938
  outer loop
  vertex 4.59376 36.612 21.3357
  vertex 1.93617 38.9468 10.9864
  vertex 2.14421 33.8121 23.2976
  endloop
 endfacet

 facet normal -0.495885 0.707015 0.50421
  outer loop
  vertex 4.59376 42.6733 8.37485
  vertex 2.0112 41.8997 6.91957
  vertex 1.93617 38.9468 10.9864
  endloop
 endfacet

 facet normal -0.357948 0.886909 0.292003
  outer loop
  vertex 4.59376 36.612 21.3357
  vertex 4.59376 39.9208 11.286
  vertex 1.93617 38.9468 10.9864
  endloop
 endfacet

 facet normal -0.537021 0.343093 0.770647
  outer loop
  vertex 4.59376 42.6733 8.37485
  vertex 2.09635 45.8807 5.20659
  vertex 2.0112 41.8997 6.91957
  endloop
 endfacet

 facet normal -0.82642 -0.09533 0.554926
  outer loop
  vertex 4.59376 42.6733 8.37485
  vertex 2.01372 50.2083 5.82698
  vertex 2.09635 45.8807 5.20659
  endloop
 endfacet

 facet normal -0.615251 0.055242 0.786393
  outer loop
  vertex 4.59376 42.6733 8.37485
  vertex 4.59376 49.4177 7.90107
  vertex 2.01372 50.2083 5.82698
  endloop
 endfacet

 facet normal -0.476205 -0.835615 0.273819
  outer loop
  vertex 4.59376 49.4177 7.90107
  vertex 2.00108 52.3305 12.2813
  vertex 2.01372 50.2083 5.82698
  endloop
 endfacet

 facet normal -0.536208 -0.813865 0.223839
  outer loop
  vertex 4.59376 49.4177 7.90107
  vertex 4.59376 50.5481 12.0113
  vertex 2.00108 52.3305 12.2813
  endloop
 endfacet

 facet normal -0.972439 0.220919 -0.0745428
  outer loop
  vertex 2.00108 52.3305 12.2813
  vertex 2.59633 53.8538 9.03033
  vertex 2.01372 50.2083 5.82698
  endloop
 endfacet

 facet normal -0.911368 0.344104 -0.225835
  outer loop
  vertex 2.59633 53.8538 9.03033
  vertex 2.79049 51.977 5.3872
  vertex 2.01372 50.2083 5.82698
  endloop
 endfacet

 facet normal 0 -0.135081 0.990835
  outer loop
  vertex 2.61161 50.8983 16.8449
  vertex 4.59376 49.5233 16.6574
  vertex 6.57591 50.8983 16.8449
  endloop
 endfacet

 facet normal -0.591455 -0.783963 -0.188634
  outer loop
  vertex 2.93278 36.3357 10.337
  vertex 4.59376 32.6434 20.4743
  vertex 2.14421 33.8121 23.2976
  endloop
 endfacet

 facet normal -0.93706 -0.327606 -0.120804
  outer loop
  vertex 2.14421 33.8121 23.2976
  vertex 1.93617 38.9468 10.9864
  vertex 2.93278 36.3357 10.337
  endloop
 endfacet

 facet normal 0.969634 0.223233 -0.0998827
  outer loop
  vertex 1.0634 9.78076 18.0768
  vertex -2.38123 22.1381 12.2554
  vertex -1.75171 21.7881 17.5843
  endloop
 endfacet

 facet normal -0.924412 0.278539 -0.260534
  outer loop
  vertex -5.96536 -20.4852 17.6883
  vertex -4.25335 -12.6907 19.9469
  vertex -2.27878 -9.84658 15.9816
  endloop
 endfacet

 facet normal 0.0892404 0.144983 -0.985401
  outer loop
  vertex 12.7181 10.769 18.8386
  vertex 11.4663 -9.84658 15.6921
  vertex 4.59376 -2.95967 16.083
  endloop
 endfacet

 facet normal 0.980843 0.164019 -0.105096
  outer loop
  vertex -2.38123 22.1381 12.2554
  vertex -2.84577 26.9564 15.4396
  vertex -1.75171 21.7881 17.5843
  endloop
 endfacet

 facet normal 0.715168 0.432045 -0.549428
  outer loop
  vertex -2.38123 22.1381 12.2554
  vertex -4.76428 26.5427 12.6171
  vertex -2.84577 26.9564 15.4396
  endloop
 endfacet

 facet normal 0 -0.939614 -0.342236
  outer loop
  vertex 6.25474 36.3357 10.337
  vertex 4.59376 32.6434 20.4743
  vertex 4.58845 36.3357 10.337
  endloop
 endfacet

 facet normal -0.340127 0.17527 -0.923901
  outer loop
  vertex -7.07057 26.6887 14.845
  vertex -2.38123 22.1381 12.2554
  vertex -7.12961 22.1381 14.0035
  endloop
 endfacet

 facet normal -0.671086 -0.307704 -0.674509
  outer loop
  vertex -7.07057 26.6887 14.845
  vertex -4.76428 26.5427 12.6171
  vertex -2.38123 22.1381 12.2554
  endloop
 endfacet

 facet normal 0.50979 -0.648991 -0.564735
  outer loop
  vertex 7.16203 52.3305 12.2813
  vertex 4.59376 49.1833 13.5798
  vertex 4.59376 50.5481 12.0113
  endloop
 endfacet

 facet normal 0.780752 -0.624036 0.031709
  outer loop
  vertex 7.16203 52.3305 12.2813
  vertex 6.1577 51.1796 14.3592
  vertex 4.59376 49.1833 13.5798
  endloop
 endfacet

 facet normal 0.979302 0.136663 -0.149301
  outer loop
  vertex 6.1577 51.1796 14.3592
  vertex 6.57591 50.8983 16.8449
  vertex 6.57591 50.0411 16.0603
  endloop
 endfacet

 facet normal 0.979348 -0.0994555 -0.176027
  outer loop
  vertex 6.1577 51.1796 14.3592
  vertex 6.57591 52.6449 15.8581
  vertex 6.57591 50.8983 16.8449
  endloop
 endfacet

 facet normal 0.802898 -0.585715 -0.110871
  outer loop
  vertex 6.1577 51.1796 14.3592
  vertex 4.59376 48.8685 15.2427
  vertex 4.59376 49.1833 13.5798
  endloop
 endfacet

 facet normal 0.581806 -0.60255 -0.546292
  outer loop
  vertex 6.1577 51.1796 14.3592
  vertex 6.57591 50.0411 16.0603
  vertex 4.59376 48.8685 15.2427
  endloop
 endfacet

 facet normal 0.370284 -0.627204 0.685205
  outer loop
  vertex 6.57591 50.0411 16.0603
  vertex 6.57591 50.8983 16.8449
  vertex 4.59376 49.5233 16.6574
  endloop
 endfacet

 facet normal 0.341735 -0.85287 0.394753
  outer loop
  vertex 6.57591 50.0411 16.0603
  vertex 4.59376 49.5233 16.6574
  vertex 4.59376 48.8685 15.2427
  endloop
 endfacet

 facet normal -0.447102 -0.413944 -0.792938
  outer loop
  vertex -6.98216 17.0905 17.4847
  vertex -2.38123 22.1381 12.2554
  vertex -3.53061 10.769 18.8386
  endloop
 endfacet

 facet normal -0.654505 0.620311 0.432247
  outer loop
  vertex 0.425661 24.7203 31.8921
  vertex 1.09631 28.1796 27.9432
  vertex -0.0723944 25.7744 29.6252
  endloop
 endfacet

 facet normal -0.875617 0.427146 0.225479
  outer loop
  vertex 0.425661 24.7203 31.8921
  vertex 2.81984 30.2536 30.7071
  vertex 1.09631 28.1796 27.9432
  endloop
 endfacet

 facet normal 0 -0.0352496 -0.999379
  outer loop
  vertex 6.46231 48.9817 3.65551
  vertex 6.62205 42.7344 3.87586
  vertex 4.59376 42.7344 3.87586
  endloop
 endfacet

 facet normal -0.756919 0.486645 -0.436177
  outer loop
  vertex -0.935451 -36.602 23.0044
  vertex 1.73049 -37.1912 17.7206
  vertex -0.786329 -43.1615 15.427
  endloop
 endfacet

 facet normal 0 -0.0352496 -0.999379
  outer loop
  vertex 6.46231 48.9817 3.65551
  vertex 4.59376 42.7344 3.87586
  vertex 4.59376 48.9817 3.65551
  endloop
 endfacet

 facet normal 0 0.500507 -0.865733
  outer loop
  vertex 6.35277 51.977 5.3872
  vertex 4.59376 48.9817 3.65551
  vertex 4.59376 51.977 5.3872
  endloop
 endfacet

 facet normal 0 0.500507 -0.865733
  outer loop
  vertex 4.59376 48.9817 3.65551
  vertex 6.35277 51.977 5.3872
  vertex 6.46231 48.9817 3.65551
  endloop
 endfacet

 facet normal 0 0.891448 -0.453123
  outer loop
  vertex 6.44365 53.8288 9.03033
  vertex 6.35277 51.977 5.3872
  vertex 4.59376 51.977 5.3872
  endloop
 endfacet

 facet normal 0 0.143901 -0.989592
  outer loop
  vertex 6.47212 -37.1912 17.7206
  vertex 1.73049 -37.1912 17.7206
  vertex 4.26563 -29.1609 18.8883
  endloop
 endfacet

 facet normal 0.00577505 0.890246 -0.455444
  outer loop
  vertex 2.59633 53.8538 9.03033
  vertex 6.44365 53.8288 9.03033
  vertex 4.59376 51.977 5.3872
  endloop
 endfacet

 facet normal 0 0.939118 0.343594
  outer loop
  vertex 6.57591 52.6449 15.8581
  vertex 4.63284 53.5707 13.3276
  vertex 4.59376 52.6449 15.8581
  endloop
 endfacet

 facet normal 0.325052 -0.444899 -0.83451
  outer loop
  vertex 6.1313 -23.2038 16.4391
  vertex 4.26563 -29.1609 18.8883
  vertex 1.7581 -24.3397 15.3413
  endloop
 endfacet

 facet normal 0 0.491914 0.870644
  outer loop
  vertex 6.57591 50.8983 16.8449
  vertex 4.59376 52.6449 15.8581
  vertex 2.61161 50.8983 16.8449
  endloop
 endfacet

 facet normal 0 0.491914 0.870644
  outer loop
  vertex 4.59376 52.6449 15.8581
  vertex 6.57591 50.8983 16.8449
  vertex 6.57591 52.6449 15.8581
  endloop
 endfacet

 facet normal 0.341082 0.815797 0.467052
  outer loop
  vertex 9.25991 25.7744 29.6252
  vertex 12.5863 22.8121 32.3701
  vertex 14.3255 25.7401 25.9857
  endloop
 endfacet

 facet normal 0.368524 -0.651374 -0.663251
  outer loop
  vertex 8.09121 28.1796 27.9432
  vertex 4.59376 26.7273 27.4261
  vertex 4.59376 29.6504 24.5553
  endloop
 endfacet

 facet normal 0.307565 -0.440412 -0.84347
  outer loop
  vertex 8.09121 28.1796 27.9432
  vertex 9.25991 25.7744 29.6252
  vertex 4.59376 26.7273 27.4261
  endloop
 endfacet

 facet normal 0.440326 -0.4692 -0.765483
  outer loop
  vertex 18.4813 14.3871 17.4847
  vertex 11.738 18.2899 11.2136
  vertex 15.1259 21.4056 11.2527
  endloop
 endfacet

 facet normal 0.258007 -0.671059 -0.695063
  outer loop
  vertex 18.4813 14.3871 17.4847
  vertex 12.7181 10.769 18.8386
  vertex 11.738 18.2899 11.2136
  endloop
 endfacet

 facet normal -0.0396645 0.0171228 -0.999066
  outer loop
  vertex 4.59376 -2.95967 16.083
  vertex 11.4663 -9.84658 15.6921
  vertex -1.15318 -13.7479 16.1262
  endloop
 endfacet

 facet normal -0.952174 0.204624 -0.226923
  outer loop
  vertex -6.23435 -24.3397 15.3413
  vertex -7.45702 -29.0448 16.2288
  vertex -5.96536 -20.4852 17.6883
  endloop
 endfacet

 facet normal 0 0.520082 -0.854116
  outer loop
  vertex -5.96536 -20.4852 17.6883
  vertex 1.7581 -24.3397 15.3413
  vertex -6.23435 -24.3397 15.3413
  endloop
 endfacet

 facet normal -0.937905 0.34366 0.0472423
  outer loop
  vertex 0.717262 -47.0177 19.314
  vertex 0.165078 -47.862 14.4931
  vertex -0.245224 -49.265 16.5532
  endloop
 endfacet

 facet normal -0.993618 0.00700944 0.112583
  outer loop
  vertex 0.717262 -47.0177 19.314
  vertex 0.332703 -44.6322 15.7715
  vertex 0.165078 -47.862 14.4931
  endloop
 endfacet

 facet normal 0.885089 0.382895 0.264591
  outer loop
  vertex 6.36768 30.2536 30.7071
  vertex 8.09121 28.1796 27.9432
  vertex 7.04331 33.8121 23.2976
  endloop
 endfacet

 facet normal -0.54533 -0.660439 0.516174
  outer loop
  vertex 12.757 11.292 0
  vertex 9.33278 16.494 3.03829
  vertex 8.24782 15.0152 0
  endloop
 endfacet

 facet normal -0.700562 -0.642495 0.310503
  outer loop
  vertex 12.757 11.292 0
  vertex 12.757 13.215 3.9791
  vertex 9.33278 16.494 3.03829
  endloop
 endfacet

 facet normal -0.785315 -0.613707 0.0815093
  outer loop
  vertex 12.368 17.8376 5.16372
  vertex 10.2218 21.4056 11.3509
  vertex 10.517 19.9959 3.58146
  endloop
 endfacet

 facet normal -0.898563 -0.434574 -0.0610749
  outer loop
  vertex 12.368 17.8376 5.16372
  vertex 11.738 18.2899 11.2136
  vertex 10.2218 21.4056 11.3509
  endloop
 endfacet

 facet normal 1 -3.16928e-12 -5.79865e-13
  outer loop
  vertex 14.4253 -6.29878 11.8006
  vertex 14.4253 -5.51614 7.52303
  vertex 14.4253 -3.53084 10.476
  endloop
 endfacet

 facet normal 1 -2.49203e-12 -4.55953e-13
  outer loop
  vertex 14.4253 -6.29878 11.8006
  vertex 14.4253 -8.45637 8.64126
  vertex 14.4253 -5.51614 7.52303
  endloop
 endfacet

 facet normal 0 0.431671 0.902031
  outer loop
  vertex 12.3401 -6.29878 11.8006
  vertex 14.4253 -3.53084 10.476
  vertex 11.9639 -3.53084 10.476
  endloop
 endfacet

 facet normal 0 0.431671 0.902031
  outer loop
  vertex 12.3401 -6.29878 11.8006
  vertex 14.4253 -6.29878 11.8006
  vertex 14.4253 -3.53084 10.476
  endloop
 endfacet

 facet normal 1 -2.51163e-12 -5.27219e-13
  outer loop
  vertex 14.4253 -1.38814 9.75473
  vertex 14.4253 -5.51614 7.52303
  vertex 14.4253 -0.771919 7.49831
  endloop
 endfacet

 facet normal 0 0.319009 0.947752
  outer loop
  vertex 14.4253 -3.53084 10.476
  vertex 11.9587 -1.38814 9.75473
  vertex 11.9639 -3.53084 10.476
  endloop
 endfacet

 facet normal 0 0.319009 0.947752
  outer loop
  vertex 14.4253 -3.53084 10.476
  vertex 14.4253 -1.38814 9.75473
  vertex 11.9587 -1.38814 9.75473
  endloop
 endfacet

 facet normal 1 -1.45758e-12 -8.62005e-13
  outer loop
  vertex 14.4253 -0.771919 7.49831
  vertex 14.4253 -5.89939 4.56219
  vertex 14.4253 -3.46074 3.10304
  endloop
 endfacet

 facet normal 1 -2.14902e-12 -7.07774e-13
  outer loop
  vertex 14.4253 -0.771919 7.49831
  vertex 14.4253 -5.51614 7.52303
  vertex 14.4253 -5.89939 4.56219
  endloop
 endfacet

 facet normal 1 -5.4225e-13 -6.43771e-13
  outer loop
  vertex 14.4253 -3.46074 3.10304
  vertex 14.4253 -8.24149 3.37504
  vertex 14.4253 -4.24376 1.23568
  endloop
 endfacet

 facet normal 1 -8.1861e-13 -8.43166e-13
  outer loop
  vertex 14.4253 -3.46074 3.10304
  vertex 14.4253 -5.89939 4.56219
  vertex 14.4253 -8.24149 3.37504
  endloop
 endfacet

 facet normal 0.986378 0.142955 -0.0813769
  outer loop
  vertex 14.4253 -4.24376 1.23568
  vertex 15.0142 -9.01027 0
  vertex 14.4489 -5.10957 0
  endloop
 endfacet

 facet normal 0.984798 0.0819596 0.153154
  outer loop
  vertex 14.4253 -4.24376 1.23568
  vertex 14.4253 -8.24149 3.37504
  vertex 15.0142 -9.01027 0
  endloop
 endfacet

 facet normal 0.174432 -0.350031 -0.920354
  outer loop
  vertex 14.4253 -8.45637 8.64126
  vertex 10.7882 -7.03503 7.41137
  vertex 14.4253 -5.51614 7.52303
  endloop
 endfacet

 facet normal 0 -0.654343 -0.756198
  outer loop
  vertex 14.4253 -8.45637 8.64126
  vertex 10.7882 -8.45637 8.64126
  vertex 10.7882 -7.03503 7.41137
  endloop
 endfacet

 facet normal 0.337415 -0.933568 0.120838
  outer loop
  vertex 14.4253 -5.51614 7.52303
  vertex 10.7882 -7.09674 5.46752
  vertex 14.4253 -5.89939 4.56219
  endloop
 endfacet

 facet normal 0.384426 -0.922691 0.0292918
  outer loop
  vertex 14.4253 -5.51614 7.52303
  vertex 10.7882 -7.03503 7.41137
  vertex 10.7882 -7.09674 5.46752
  endloop
 endfacet

 facet normal 0.336283 -0.42578 0.840015
  outer loop
  vertex 14.4253 -5.89939 4.56219
  vertex 10.7882 -10.7946 3.53698
  vertex 14.4253 -8.24149 3.37504
  endloop
 endfacet

 facet normal 0.34949 -0.433613 0.830564
  outer loop
  vertex 14.4253 -5.89939 4.56219
  vertex 10.7882 -7.09674 5.46752
  vertex 10.7882 -10.7946 3.53698
  endloop
 endfacet

 facet normal 0.524016 -0.806077 0.27504
  outer loop
  vertex 14.4253 -8.24149 3.37504
  vertex 10.865 -11.7076 0
  vertex 15.0142 -9.01027 0
  endloop
 endfacet

 facet normal 0.567269 -0.794333 0.21735
  outer loop
  vertex 14.4253 -8.24149 3.37504
  vertex 10.7882 -10.7946 3.53698
  vertex 10.865 -11.7076 0
  endloop
 endfacet

 facet normal 0 0.73899 0.673717
  outer loop
  vertex 11.4663 -9.84658 15.6921
  vertex 14.4253 -6.29878 11.8006
  vertex 12.3401 -6.29878 11.8006
  endloop
 endfacet

 facet normal -0.129176 0.779734 0.61264
  outer loop
  vertex 11.4663 -9.84658 15.6921
  vertex 14.4776 -12.6907 19.9469
  vertex 14.4253 -6.29878 11.8006
  endloop
 endfacet

 facet normal 0.881616 -0.0829933 -0.464613
  outer loop
  vertex 13.4409 -12.6907 19.9469
  vertex 11.4663 -9.84658 15.6921
  vertex 15.7634 -3.36766 22.6887
  endloop
 endfacet

 facet normal 1 -2.84045e-12 -5.53542e-13
  outer loop
  vertex 14.4253 -3.53084 10.476
  vertex 14.4253 -5.51614 7.52303
  vertex 14.4253 -1.38814 9.75473
  endloop
 endfacet

 facet normal 0 -0.200903 -0.979611
  outer loop
  vertex 4.28193 -45.9899 12.5933
  vertex 2.68104 -47.3279 12.8677
  vertex 2.68104 -45.9899 12.5933
  endloop
 endfacet

 facet normal 0 -0.200903 -0.979611
  outer loop
  vertex 4.28193 -45.9899 12.5933
  vertex 4.28193 -47.3279 12.8677
  vertex 2.68104 -47.3279 12.8677
  endloop
 endfacet

 facet normal 0 0.358605 -0.933489
  outer loop
  vertex -0.786329 -43.1615 15.427
  vertex 1.73049 -37.1912 17.7206
  vertex 4.26436 -43.1615 15.427
  endloop
 endfacet

 facet normal 0 0.964674 0.263448
  outer loop
  vertex 11.9587 -1.38814 9.75473
  vertex 14.4253 -0.771919 7.49831
  vertex 11.4878 -0.771919 7.49831
  endloop
 endfacet

 facet normal 0 0.964674 0.263448
  outer loop
  vertex 11.9587 -1.38814 9.75473
  vertex 14.4253 -1.38814 9.75473
  vertex 14.4253 -0.771919 7.49831
  endloop
 endfacet

 facet normal 0 0.853038 -0.521849
  outer loop
  vertex 11.4878 -0.771919 7.49831
  vertex 14.4253 -3.46074 3.10304
  vertex 10.3544 -3.46074 3.10304
  endloop
 endfacet

 facet normal 0 0.853038 -0.521849
  outer loop
  vertex 11.4878 -0.771919 7.49831
  vertex 14.4253 -0.771919 7.49831
  vertex 14.4253 -3.46074 3.10304
  endloop
 endfacet

 facet normal 0 0.922207 -0.386697
  outer loop
  vertex 10.3544 -3.46074 3.10304
  vertex 14.4253 -4.24376 1.23568
  vertex 11.0136 -4.24376 1.23568
  endloop
 endfacet

 facet normal 0 0.922207 -0.386697
  outer loop
  vertex 10.3544 -3.46074 3.10304
  vertex 14.4253 -3.46074 3.10304
  vertex 14.4253 -4.24376 1.23568
  endloop
 endfacet

 facet normal 0 0.818971 -0.573834
  outer loop
  vertex 14.4253 -4.24376 1.23568
  vertex 11.5646 -5.10957 0
  vertex 11.0136 -4.24376 1.23568
  endloop
 endfacet

 facet normal 0 0.818971 -0.573834
  outer loop
  vertex 14.4253 -4.24376 1.23568
  vertex 14.4489 -5.10957 0
  vertex 11.5646 -5.10957 0
  endloop
 endfacet

 facet normal -0.678968 -0.533873 0.503966
  outer loop
  vertex 10.865 -11.7076 0
  vertex 8.74414 -6.21784 2.95814
  vertex 8.74414 -9.01027 0
  endloop
 endfacet

 facet normal -0.913792 -0.397653 0.0828081
  outer loop
  vertex 10.865 -11.7076 0
  vertex 10.7882 -10.7946 3.53698
  vertex 8.74414 -6.21784 2.95814
  endloop
 endfacet

 facet normal -0.702549 -0.618335 0.352261
  outer loop
  vertex 10.7882 -7.09674 5.46752
  vertex 9.20754 -4.17161 7.44951
  vertex 9.30759 -5.93019 4.56216
  endloop
 endfacet

 facet normal -0.875272 -0.483387 0.0153456
  outer loop
  vertex 10.7882 -7.09674 5.46752
  vertex 10.7882 -7.03503 7.41137
  vertex 9.20754 -4.17161 7.44951
  endloop
 endfacet

 facet normal -0.789701 -0.283922 0.543838
  outer loop
  vertex 10.7882 -7.09674 5.46752
  vertex 8.74414 -6.21784 2.95814
  vertex 10.7882 -10.7946 3.53698
  endloop
 endfacet

 facet normal -0.702962 -0.615011 0.35722
  outer loop
  vertex 10.7882 -7.09674 5.46752
  vertex 9.30759 -5.93019 4.56216
  vertex 8.74414 -6.21784 2.95814
  endloop
 endfacet

 facet normal -0.709112 0.512732 -0.48401
  outer loop
  vertex 8.74414 -6.21784 2.95814
  vertex 11.5646 -5.10957 0
  vertex 8.74414 -9.01027 0
  endloop
 endfacet

 facet normal -0.740045 0.349318 -0.574726
  outer loop
  vertex 8.74414 -6.21784 2.95814
  vertex 11.0136 -4.24376 1.23568
  vertex 11.5646 -5.10957 0
  endloop
 endfacet

 facet normal -0.848813 0.484654 0.211251
  outer loop
  vertex 10.3544 -3.46074 3.10304
  vertex 8.74414 -6.21784 2.95814
  vertex 9.30759 -5.93019 4.56216
  endloop
 endfacet

 facet normal -0.755179 0.465332 -0.461704
  outer loop
  vertex 10.3544 -3.46074 3.10304
  vertex 11.0136 -4.24376 1.23568
  vertex 8.74414 -6.21784 2.95814
  endloop
 endfacet

 facet normal -0.776524 0.52582 -0.347166
  outer loop
  vertex 11.4878 -0.771919 7.49831
  vertex 9.30759 -5.93019 4.56216
  vertex 9.20754 -4.17161 7.44951
  endloop
 endfacet

 facet normal -0.920899 0.389801 -0.000998323
  outer loop
  vertex 11.4878 -0.771919 7.49831
  vertex 10.3544 -3.46074 3.10304
  vertex 9.30759 -5.93019 4.56216
  endloop
 endfacet

 facet normal -0.730329 0.681342 0.0489092
  outer loop
  vertex 11.9587 -1.38814 9.75473
  vertex 9.20754 -4.17161 7.44951
  vertex 9.29431 -4.18024 8.86547
  endloop
 endfacet

 facet normal -0.79187 0.526696 0.309085
  outer loop
  vertex 11.9587 -1.38814 9.75473
  vertex 11.4878 -0.771919 7.49831
  vertex 9.20754 -4.17161 7.44951
  endloop
 endfacet

 facet normal 0 0.358605 -0.933489
  outer loop
  vertex 6.47212 -37.1912 17.7206
  vertex 4.26436 -43.1615 15.427
  vertex 1.73049 -37.1912 17.7206
  endloop
 endfacet

 facet normal -0.544571 0.266363 0.795295
  outer loop
  vertex 11.9639 -3.53084 10.476
  vertex 11.9587 -1.38814 9.75473
  vertex 9.29431 -4.18024 8.86547
  endloop
 endfacet

 facet normal -0.630519 0.148872 0.761763
  outer loop
  vertex 12.3401 -6.29878 11.8006
  vertex 9.29431 -4.18024 8.86547
  vertex 9.66647 -8.75731 10.068
  endloop
 endfacet

 facet normal -0.545209 0.300419 0.782621
  outer loop
  vertex 12.3401 -6.29878 11.8006
  vertex 11.9639 -3.53084 10.476
  vertex 9.29431 -4.18024 8.86547
  endloop
 endfacet

 facet normal -0.893203 -0.294228 -0.340027
  outer loop
  vertex 9.29431 -4.18024 8.86547
  vertex 10.7882 -7.03503 7.41137
  vertex 10.7882 -8.45637 8.64126
  endloop
 endfacet

 facet normal -0.874054 -0.483184 0.0506184
  outer loop
  vertex 9.29431 -4.18024 8.86547
  vertex 9.20754 -4.17161 7.44951
  vertex 10.7882 -7.03503 7.41137
  endloop
 endfacet

 facet normal 0 0.922933 -0.384962
  outer loop
  vertex 1.7581 -24.3397 15.3413
  vertex -5.59857 -25.3276 12.9727
  vertex -6.23435 -24.3397 15.3413
  endloop
 endfacet

 facet normal -0.745232 0.58523 0.319587
  outer loop
  vertex 8.34537 -13.7479 16.1262
  vertex 12.3401 -6.29878 11.8006
  vertex 9.66647 -8.75731 10.068
  endloop
 endfacet

 facet normal -0.696832 0.600999 0.391441
  outer loop
  vertex 8.34537 -13.7479 16.1262
  vertex 11.4663 -9.84658 15.6921
  vertex 12.3401 -6.29878 11.8006
  endloop
 endfacet

 facet normal -0.742005 -0.226142 -0.631101
  outer loop
  vertex 9.66647 -8.75731 10.068
  vertex 9.29431 -4.18024 8.86547
  vertex 10.7882 -8.45637 8.64126
  endloop
 endfacet

 facet normal -0.973541 0.227117 -0.0252041
  outer loop
  vertex 9.66647 -8.75731 10.068
  vertex 6.1313 -23.2038 16.4391
  vertex 8.34537 -13.7479 16.1262
  endloop
 endfacet

 facet normal -0.774119 -0.0870918 -0.62702
  outer loop
  vertex 9.66647 -8.75731 10.068
  vertex 10.7882 -8.45637 8.64126
  vertex 6.1313 -23.2038 16.4391
  endloop
 endfacet

 facet normal -1.71055e-10 0.999956 -0.00942329
  outer loop
  vertex 9.25991 25.7744 29.6252
  vertex 14.3255 25.7401 25.9857
  vertex 4.59376 25.7401 25.9857
  endloop
 endfacet

 facet normal 0.3988 0.75643 -0.518432
  outer loop
  vertex 9.25991 25.7744 29.6252
  vertex 4.59376 25.7401 25.9857
  vertex 4.59376 26.7273 27.4261
  endloop
 endfacet

 facet normal 0 0 -1
  outer loop
  vertex 15.0142 -9.01027 0
  vertex 10.865 -11.7076 0
  vertex 8.74414 -9.01027 0
  endloop
 endfacet

 facet normal 0 0 -1
  outer loop
  vertex 15.0142 -9.01027 0
  vertex 11.5646 -5.10957 0
  vertex 14.4489 -5.10957 0
  endloop
 endfacet

 facet normal 0 0 -1
  outer loop
  vertex 15.0142 -9.01027 0
  vertex 8.74414 -9.01027 0
  vertex 11.5646 -5.10957 0
  endloop
 endfacet

 facet normal 0.292883 0.319695 0.901119
  outer loop
  vertex 4.59376 21.6523 34.3352
  vertex 8.76186 24.7203 31.8921
  vertex 6.36768 30.2536 30.7071
  endloop
 endfacet

 facet normal 0.858036 0.40721 -0.312975
  outer loop
  vertex 13.415 -13.6977 21.7551
  vertex 15.1815 -13.721 26.5676
  vertex 15.1529 -20.4852 17.6883
  endloop
 endfacet

 facet normal 0.77809 -0.307162 -0.54793
  outer loop
  vertex 8.09121 28.1796 27.9432
  vertex 4.59376 32.6434 20.4743
  vertex 7.04331 33.8121 23.2976
  endloop
 endfacet

 facet normal 0.227579 -0.785232 -0.575863
  outer loop
  vertex 8.09121 28.1796 27.9432
  vertex 4.59376 29.6504 24.5553
  vertex 4.59376 32.6434 20.4743
  endloop
 endfacet

 facet normal -0.74264 -0.635125 -0.212375
  outer loop
  vertex -1.90668 -45.7062 24.5673
  vertex 0.717262 -47.0177 19.314
  vertex 0.69473 -48.2668 23.1284
  endloop
 endfacet

 facet normal -0.855059 -0.402811 -0.326523
  outer loop
  vertex -1.90668 -45.7062 24.5673
  vertex -1.60109 -44.026 21.6943
  vertex 0.717262 -47.0177 19.314
  endloop
 endfacet

 facet normal -0.798239 -0.601979 -0.0208678
  outer loop
  vertex 0.717262 -47.0177 19.314
  vertex -1.60109 -44.026 21.6943
  vertex -2.27309 -43.0882 20.3473
  endloop
 endfacet

 facet normal -0.84202 -0.235554 0.4853
  outer loop
  vertex 0.717262 -47.0177 19.314
  vertex -0.245224 -49.265 16.5532
  vertex 0.59681 -51.0593 17.1433
  endloop
 endfacet

 facet normal -0.189892 -0.0910266 -0.977576
  outer loop
  vertex -1.15318 -13.7479 16.1262
  vertex -5.96536 -20.4852 17.6883
  vertex -2.27878 -9.84658 15.9816
  endloop
 endfacet

 facet normal -0.890921 -0.0265522 0.453381
  outer loop
  vertex -7.09939 11.421 24.431
  vertex -2.01874 12.4796 34.4768
  vertex -3.39874 22.8121 32.3701
  endloop
 endfacet

 facet normal 0 0.0739097 -0.997265
  outer loop
  vertex 8.34537 -13.7479 16.1262
  vertex 1.7581 -24.3397 15.3413
  vertex -1.15318 -13.7479 16.1262
  endloop
 endfacet

 facet normal -0.944996 0.0286646 -0.325823
  outer loop
  vertex 2.01372 50.2083 5.82698
  vertex 2.72521 48.9817 3.65551
  vertex 2.09635 45.8807 5.20659
  endloop
 endfacet

 facet normal -0.859632 0.269628 -0.433974
  outer loop
  vertex 2.72521 48.9817 3.65551
  vertex 2.01372 50.2083 5.82698
  vertex 2.79049 51.977 5.3872
  endloop
 endfacet

 facet normal -0.934353 0.0113272 -0.356169
  outer loop
  vertex 2.72521 48.9817 3.65551
  vertex 2.56547 42.7344 3.87586
  vertex 2.09635 45.8807 5.20659
  endloop
 endfacet

 facet normal -0.978654 -0.0632121 -0.195552
  outer loop
  vertex 2.56547 42.7344 3.87586
  vertex 2.0112 41.8997 6.91957
  vertex 2.09635 45.8807 5.20659
  endloop
 endfacet

 facet normal -0.953296 -0.198163 -0.227942
  outer loop
  vertex 2.56547 42.7344 3.87586
  vertex 2.78597 38.199 6.89658
  vertex 2.0112 41.8997 6.91957
  endloop
 endfacet

 facet normal -0.936413 -0.323734 -0.135378
  outer loop
  vertex 1.93617 38.9468 10.9864
  vertex 2.78597 38.199 6.89658
  vertex 2.93278 36.3357 10.337
  endloop
 endfacet

 facet normal -0.96575 -0.201168 -0.163883
  outer loop
  vertex 1.93617 38.9468 10.9864
  vertex 2.0112 41.8997 6.91957
  vertex 2.78597 38.199 6.89658
  endloop
 endfacet

 facet normal -0.325066 0.687167 0.649718
  outer loop
  vertex 4.59376 39.9208 11.286
  vertex 4.59376 42.6733 8.37485
  vertex 1.93617 38.9468 10.9864
  endloop
 endfacet

 facet normal -0.977001 0.181141 0.112504
  outer loop
  vertex -6.57591 -3.36766 22.6887
  vertex -5.65412 -4.47821 32.4817
  vertex -3.75611 8.14168 28.6453
  endloop
 endfacet

 facet normal 0 -0.110599 -0.993865
  outer loop
  vertex 8.34537 -13.7479 16.1262
  vertex -1.15318 -13.7479 16.1262
  vertex 11.4663 -9.84658 15.6921
  endloop
 endfacet

 facet normal 0.549071 -0.237362 0.801362
  outer loop
  vertex -1.10498 -44.8479 5.16161
  vertex -3.67842 -51.5063 4.95266
  vertex -0.768661 -49.8074 3.46218
  endloop
 endfacet

 facet normal 0.382312 -0.176228 0.907073
  outer loop
  vertex -1.10498 -44.8479 5.16161
  vertex -3.62845 -45.4169 6.11467
  vertex -3.67842 -51.5063 4.95266
  endloop
 endfacet

 facet normal 0.986425 0.0892622 0.137831
  outer loop
  vertex -1.10498 -44.8479 5.16161
  vertex 0.0628897 -49.7838 0
  vertex -1.02914 -42.2153 2.9139
  endloop
 endfacet

 facet normal 0.972273 -0.0140532 0.233426
  outer loop
  vertex -1.10498 -44.8479 5.16161
  vertex -0.768661 -49.8074 3.46218
  vertex 0.0628897 -49.7838 0
  endloop
 endfacet

 facet normal 0.611818 -0.699775 0.368772
  outer loop
  vertex -0.768661 -49.8074 3.46218
  vertex -3.70534 -54.1995 0
  vertex -1.45388 -52.231 0
  endloop
 endfacet

 facet normal 0.603571 -0.701817 0.378358
  outer loop
  vertex -0.768661 -49.8074 3.46218
  vertex -3.67842 -51.5063 4.95266
  vertex -3.70534 -54.1995 0
  endloop
 endfacet

 facet normal 0.833388 -0.516524 0.19664
  outer loop
  vertex -0.768661 -49.8074 3.46218
  vertex -1.45388 -52.231 0
  vertex 0.0628897 -49.7838 0
  endloop
 endfacet

 facet normal 0.960096 0.209751 -0.184989
  outer loop
  vertex -1.02914 -42.2153 2.9139
  vertex 0.0628897 -49.7838 0
  vertex -1.41134 -43.0358 0
  endloop
 endfacet

 facet normal 0.514173 0.48014 -0.710698
  outer loop
  vertex -1.10498 -26.8979 15.1628
  vertex -5.59857 -41.3654 2.13773
  vertex -5.59857 -25.3276 12.9727
  endloop
 endfacet

 facet normal 0.241496 0.606783 -0.757294
  outer loop
  vertex -1.10498 -26.8979 15.1628
  vertex -1.02914 -42.2153 2.9139
  vertex -5.59857 -41.3654 2.13773
  endloop
 endfacet

 facet normal 0.222517 0.930434 -0.291168
  outer loop
  vertex -1.02914 -42.2153 2.9139
  vertex -1.41134 -43.0358 0
  vertex -5.59857 -41.3654 2.13773
  endloop
 endfacet

 facet normal -0.600721 -0.227752 0.766331
  outer loop
  vertex -3.67842 -51.5063 4.95266
  vertex -6.17391 -45.653 4.73605
  vertex -6.22388 -49.8075 3.46218
  endloop
 endfacet

 facet normal -0.458134 -0.162984 0.873813
  outer loop
  vertex -3.67842 -51.5063 4.95266
  vertex -3.62845 -45.4169 6.11467
  vertex -6.17391 -45.653 4.73605
  endloop
 endfacet

 facet normal -0.509647 -0.693582 0.50912
  outer loop
  vertex -3.70534 -54.1995 0
  vertex -6.22388 -49.8075 3.46218
  vertex -6.38424 -52.231 0
  endloop
 endfacet

 facet normal -0.655007 -0.662322 0.363723
  outer loop
  vertex -3.70534 -54.1995 0
  vertex -3.67842 -51.5063 4.95266
  vertex -6.22388 -49.8075 3.46218
  endloop
 endfacet

 facet normal -0.987325 0.0226377 0.15709
  outer loop
  vertex -6.22388 -49.8075 3.46218
  vertex -6.62007 -43.0621 0
  vertex -6.81057 -51.3705 0
  endloop
 endfacet

 facet normal -0.996193 -0.0143811 0.0859804
  outer loop
  vertex -6.22388 -49.8075 3.46218
  vertex -6.17391 -45.653 4.73605
  vertex -6.62007 -43.0621 0
  endloop
 endfacet

 facet normal -0.845159 -0.41871 0.332247
  outer loop
  vertex -6.22388 -49.8075 3.46218
  vertex -6.81057 -51.3705 0
  vertex -6.38424 -52.231 0
  endloop
 endfacet

 facet normal -0.751729 -0.464801 0.467828
  outer loop
  vertex -7.45702 -29.0448 16.2288
  vertex -3.62845 -45.4169 6.11467
  vertex -4.57665 -32.4649 17.4592
  endloop
 endfacet

 facet normal -0.357745 -0.549909 0.754731
  outer loop
  vertex -7.45702 -29.0448 16.2288
  vertex -6.17391 -45.653 4.73605
  vertex -3.62845 -45.4169 6.11467
  endloop
 endfacet

 facet normal -0.93464 0.267441 0.234359
  outer loop
  vertex -6.62007 -43.0621 0
  vertex -6.17391 -45.653 4.73605
  vertex -5.59857 -41.3654 2.13773
  endloop
 endfacet

 facet normal 0.843366 -0.34744 0.409901
  outer loop
  vertex -1.10498 -29.231 17.0861
  vertex 1.7581 -24.3397 15.3413
  vertex -2.52543 -28.7285 20.4345
  endloop
 endfacet

 facet normal 0.524738 -0.541466 -0.656859
  outer loop
  vertex -1.10498 -29.231 17.0861
  vertex -1.10498 -26.8979 15.1628
  vertex 1.7581 -24.3397 15.3413
  endloop
 endfacet

 facet normal 0.538778 0.599111 0.59227
  outer loop
  vertex 6.1577 51.1796 14.3592
  vertex 7.16203 52.3305 12.2813
  vertex 4.63284 53.5707 13.3276
  endloop
 endfacet

 facet normal 0.510542 0.818232 0.264278
  outer loop
  vertex 7.16203 52.3305 12.2813
  vertex 6.44365 53.8288 9.03033
  vertex 4.63284 53.5707 13.3276
  endloop
 endfacet

 facet normal -0.499991 0.81579 0.290682
  outer loop
  vertex 2.00108 52.3305 12.2813
  vertex 4.63284 53.5707 13.3276
  vertex 2.59633 53.8538 9.03033
  endloop
 endfacet

 facet normal -0.795159 0.307601 -0.522594
  outer loop
  vertex 4.63284 53.5707 13.3276
  vertex 3.02982 51.1796 14.3592
  vertex 2.61161 52.6449 15.8581
  endloop
 endfacet

 facet normal 0.807059 0.29365 -0.512275
  outer loop
  vertex 6.1577 51.1796 14.3592
  vertex 4.63284 53.5707 13.3276
  vertex 6.57591 52.6449 15.8581
  endloop
 endfacet

 facet normal -0.523747 0.60838 0.596291
  outer loop
  vertex 3.02982 51.1796 14.3592
  vertex 4.63284 53.5707 13.3276
  vertex 2.00108 52.3305 12.2813
  endloop
 endfacet

 facet normal 0.00647345 0.998014 0.0626654
  outer loop
  vertex 6.44365 53.8288 9.03033
  vertex 2.59633 53.8538 9.03033
  vertex 4.63284 53.5707 13.3276
  endloop
 endfacet

 facet normal -0.894467 0.00129917 0.447133
  outer loop
  vertex -0.935451 -36.602 23.0044
  vertex -2.27309 -43.0882 20.3473
  vertex -1.60109 -44.026 21.6943
  endloop
 endfacet

 facet normal -0.24162 -0.467842 -0.850143
  outer loop
  vertex 1.0634 9.78076 18.0768
  vertex -3.53061 10.769 18.8386
  vertex -2.38123 22.1381 12.2554
  endloop
 endfacet

 facet normal -0.523199 0.198548 -0.828759
  outer loop
  vertex 2.35893 -51.6845 17.4949
  vertex 4.28193 -51.4497 16.3372
  vertex 4.28193 -51.6517 16.2888
  endloop
 endfacet

 facet normal 0.964431 0.220106 -0.146378
  outer loop
  vertex -1.75171 21.7881 17.5843
  vertex -1.13314 21.1397 20.6849
  vertex 1.0634 9.78076 18.0768
  endloop
 endfacet

 facet normal 0 -0.554336 -0.832293
  outer loop
  vertex 4.60245 38.199 6.89658
  vertex 6.62205 42.7344 3.87586
  vertex 6.40155 38.199 6.89658
  endloop
 endfacet

 facet normal 0 -0.554336 -0.832293
  outer loop
  vertex 4.60245 38.199 6.89658
  vertex 4.59376 42.7344 3.87586
  vertex 6.62205 42.7344 3.87586
  endloop
 endfacet

 facet normal -0.251937 -0.268395 0.929781
  outer loop
  vertex 4.59376 -43.4586 29.5267
  vertex 4.59376 -24.8831 34.8888
  vertex 1.24933 -38.6143 30.0188
  endloop
 endfacet

 facet normal -0.921989 -0.247107 0.298118
  outer loop
  vertex -0.954856 -24.8831 34.5836
  vertex 0.168681 -36.5983 28.3477
  vertex 1.24933 -38.6143 30.0188
  endloop
 endfacet

 facet normal -0.861395 -0.300564 0.409464
  outer loop
  vertex -0.954856 -24.8831 34.5836
  vertex -5.87144 -20.7587 27.268
  vertex 0.168681 -36.5983 28.3477
  endloop
 endfacet

 facet normal -0.925319 -0.327324 0.191426
  outer loop
  vertex 0.168681 -36.5983 28.3477
  vertex -4.82917 -25.5044 23.1587
  vertex -0.935451 -36.602 23.0044
  endloop
 endfacet

 facet normal -0.925877 -0.342138 0.160292
  outer loop
  vertex 0.168681 -36.5983 28.3477
  vertex -5.87144 -20.7587 27.268
  vertex -4.82917 -25.5044 23.1587
  endloop
 endfacet

 facet normal 0 -0.879312 -0.476247
  outer loop
  vertex 4.60245 38.199 6.89658
  vertex 2.93278 36.3357 10.337
  vertex 2.78597 38.199 6.89658
  endloop
 endfacet

 facet normal 0 -0.879312 -0.476247
  outer loop
  vertex 4.60245 38.199 6.89658
  vertex 4.58845 36.3357 10.337
  vertex 2.93278 36.3357 10.337
  endloop
 endfacet

 facet normal 0 -0.879312 -0.476247
  outer loop
  vertex 6.40155 38.199 6.89658
  vertex 4.58845 36.3357 10.337
  vertex 4.60245 38.199 6.89658
  endloop
 endfacet

 facet normal 0 -0.879312 -0.476247
  outer loop
  vertex 6.40155 38.199 6.89658
  vertex 6.25474 36.3357 10.337
  vertex 4.58845 36.3357 10.337
  endloop
 endfacet

 facet normal 0 -0.554336 -0.832293
  outer loop
  vertex 4.59376 42.7344 3.87586
  vertex 2.78597 38.199 6.89658
  vertex 2.56547 42.7344 3.87586
  endloop
 endfacet

 facet normal 0 -0.554336 -0.832293
  outer loop
  vertex 4.59376 42.7344 3.87586
  vertex 4.60245 38.199 6.89658
  vertex 2.78597 38.199 6.89658
  endloop
 endfacet

 facet normal 0.869743 0.423028 0.254156
  outer loop
  vertex -2.4035 35.0112 4.12492
  vertex -1.31851 35.2587 0
  vertex -3.25358 37.688 2.57853
  endloop
 endfacet

 facet normal -0.166446 0.826627 -0.537571
  outer loop
  vertex 4.59376 25.7401 25.9857
  vertex 9.47886 21.2788 17.6131
  vertex -1.13314 21.1397 20.6849
  endloop
 endfacet

 facet normal -0.276273 0.164012 -0.946981
  outer loop
  vertex 1.0634 9.78076 18.0768
  vertex -1.13314 21.1397 20.6849
  vertex 9.47886 21.2788 17.6131
  endloop
 endfacet

 facet normal -0.00280478 -0.0382483 -0.999264
  outer loop
  vertex 1.0634 9.78076 18.0768
  vertex 9.47886 21.2788 17.6131
  vertex 7.35506 8.0656 18.1248
  endloop
 endfacet

 facet normal 0.00796505 -0.632427 0.774579
  outer loop
  vertex 1.24933 -38.6143 30.0188
  vertex -3.17244 -38.0148 30.5538
  vertex -2.27082 -41.3354 27.8333
  endloop
 endfacet

 facet normal -0.00395225 0.7842 -0.620495
  outer loop
  vertex -5.59857 -41.3654 2.13773
  vertex -1.41134 -43.0358 0
  vertex -6.62007 -43.0621 0
  endloop
 endfacet

 facet normal 0 0 -1
  outer loop
  vertex -1.41134 -43.0358 0
  vertex 0.0628897 -49.7838 0
  vertex -6.62007 -43.0621 0
  endloop
 endfacet

 facet normal 0 0 -1
  outer loop
  vertex -6.38424 -52.231 0
  vertex -1.45388 -52.231 0
  vertex -3.70534 -54.1995 0
  endloop
 endfacet

 facet normal 0 0 -1
  outer loop
  vertex -1.45388 -52.231 0
  vertex -6.81057 -51.3705 0
  vertex 0.0628897 -49.7838 0
  endloop
 endfacet

 facet normal 0 0 -1
  outer loop
  vertex -1.45388 -52.231 0
  vertex -6.38424 -52.231 0
  vertex -6.81057 -51.3705 0
  endloop
 endfacet

 facet normal 0 0 -1
  outer loop
  vertex 0.0628897 -49.7838 0
  vertex -6.81057 -51.3705 0
  vertex -6.62007 -43.0621 0
  endloop
 endfacet

 facet normal 0.875373 -0.0630584 0.479318
  outer loop
  vertex 14.4776 -12.6907 19.9469
  vertex 13.415 -13.6977 21.7551
  vertex 15.1529 -20.4852 17.6883
  endloop
 endfacet

 facet normal -0.861301 -0.193219 0.469922
  outer loop
  vertex -0.954856 -24.8831 34.5836
  vertex -6.53624 -19.3641 26.623
  vertex -5.87144 -20.7587 27.268
  endloop
 endfacet

 facet normal -0.849102 -0.115081 0.515541
  outer loop
  vertex -0.954856 -24.8831 34.5836
  vertex -0.954856 -17.776 36.1701
  vertex -6.53624 -19.3641 26.623
  endloop
 endfacet

 facet normal 0.994223 -0.00264911 -0.107302
  outer loop
  vertex 11.0942 -45.7062 24.5673
  vertex 10.7886 -44.026 21.6943
  vertex 11.4583 -41.3354 27.8333
  endloop
 endfacet

 facet normal 0.980243 0.1065 -0.166676
  outer loop
  vertex 11.4583 -41.3354 27.8333
  vertex 10.123 -36.602 23.0044
  vertex 10.6748 -37.4616 25.7005
  endloop
 endfacet

 facet normal 0.980676 0.115758 -0.15772
  outer loop
  vertex 11.4583 -41.3354 27.8333
  vertex 10.7886 -44.026 21.6943
  vertex 10.123 -36.602 23.0044
  endloop
 endfacet

 facet normal -0.0966724 0.962519 -0.253401
  outer loop
  vertex 0.168681 -36.5983 28.3477
  vertex -1.48728 -37.4616 25.7005
  vertex -3.48258 -36.9728 28.3184
  endloop
 endfacet

 facet normal 0.261099 -0.888279 -0.377873
  outer loop
  vertex 10.7412 -37.5397 28.3184
  vertex 12.6701 -36.9728 28.3184
  vertex 12.36 -38.0148 30.5538
  endloop
 endfacet

 facet normal 0.811501 0.222375 -0.540385
  outer loop
  vertex 10.7412 -37.5397 28.3184
  vertex 12.36 -38.0148 30.5538
  vertex 11.4583 -41.3354 27.8333
  endloop
 endfacet

 facet normal 0.894467 0.00129917 0.447133
  outer loop
  vertex 10.123 -36.602 23.0044
  vertex 10.7886 -44.026 21.6943
  vertex 11.4606 -43.0882 20.3473
  endloop
 endfacet

 facet normal 0.91114 0.302527 -0.279824
  outer loop
  vertex 10.123 -36.602 23.0044
  vertex 11.4606 -43.0882 20.3473
  vertex 9.97385 -43.1615 15.427
  endloop
 endfacet

 facet normal 0.643261 0.572563 -0.508317
  outer loop
  vertex 10.123 -36.602 23.0044
  vertex 9.97385 -43.1615 15.427
  vertex 6.47212 -37.1912 17.7206
  endloop
 endfacet

 facet normal 0.549094 -0.828937 0.106581
  outer loop
  vertex 7.50788 -48.2668 23.1284
  vertex 11.0942 -45.7062 24.5673
  vertex 7.50788 -48.0768 24.6064
  endloop
 endfacet

 facet normal 0.759775 -0.522796 -0.386558
  outer loop
  vertex 11.0942 -45.7062 24.5673
  vertex 7.51898 -47.0177 19.314
  vertex 10.7886 -44.026 21.6943
  endloop
 endfacet

 facet normal 0.626146 -0.741523 -0.24101
  outer loop
  vertex 11.0942 -45.7062 24.5673
  vertex 7.50788 -48.2668 23.1284
  vertex 7.51898 -47.0177 19.314
  endloop
 endfacet

 facet normal 0.372486 -0.430471 0.822161
  outer loop
  vertex 7.51898 -47.0177 19.314
  vertex 6.14072 -51.6845 17.4949
  vertex 7.63943 -51.0593 17.1433
  endloop
 endfacet

 facet normal 0.964019 -0.253447 -0.0801942
  outer loop
  vertex 7.51898 -47.0177 19.314
  vertex 7.50788 -48.2668 23.1284
  vertex 6.14072 -51.6845 17.4949
  endloop
 endfacet

 facet normal 0.84202 -0.235554 0.4853
  outer loop
  vertex 7.51898 -47.0177 19.314
  vertex 7.63943 -51.0593 17.1433
  vertex 8.48146 -49.265 16.5532
  endloop
 endfacet

 facet normal 0.963657 -0.221602 0.149188
  outer loop
  vertex 7.51898 -47.0177 19.314
  vertex 8.07116 -47.862 14.4931
  vertex 8.61597 -44.6322 15.7715
  endloop
 endfacet

 facet normal 0.937905 0.34366 0.0472423
  outer loop
  vertex 7.51898 -47.0177 19.314
  vertex 8.48146 -49.265 16.5532
  vertex 8.07116 -47.862 14.4931
  endloop
 endfacet

 facet normal 0.716547 -0.686998 -0.120811
  outer loop
  vertex 7.51898 -47.0177 19.314
  vertex 11.4606 -43.0882 20.3473
  vertex 10.7886 -44.026 21.6943
  endloop
 endfacet

 facet normal 0.696076 -0.689532 -0.200062
  outer loop
  vertex 11.4606 -43.0882 20.3473
  vertex 8.61597 -44.6322 15.7715
  vertex 9.97385 -43.1615 15.427
  endloop
 endfacet

 facet normal 0.716941 -0.660571 -0.222805
  outer loop
  vertex 11.4606 -43.0882 20.3473
  vertex 7.51898 -47.0177 19.314
  vertex 8.61597 -44.6322 15.7715
  endloop
 endfacet

 facet normal -0.560699 0.329723 -0.759539
  outer loop
  vertex 0.332703 -44.6322 15.7715
  vertex 2.68104 -47.3279 12.8677
  vertex 0.165078 -47.862 14.4931
  endloop
 endfacet

 facet normal 0.71611 -0.688306 -0.115846
  outer loop
  vertex 9.97385 -43.1615 15.427
  vertex 8.61597 -44.6322 15.7715
  vertex 5.55519 -47.3279 12.8677
  endloop
 endfacet

 facet normal 0.316969 -0.309898 0.896378
  outer loop
  vertex 4.59376 -43.4586 29.5267
  vertex 11.4583 -41.3354 27.8333
  vertex 7.93819 -38.6143 30.0188
  endloop
 endfacet

 facet normal -0.112374 -0.985553 0.126719
  outer loop
  vertex 4.30606 -48.6652 23.2328
  vertex 0.69473 -48.0768 24.6064
  vertex 0.69473 -48.2668 23.1284
  endloop
 endfacet

 facet normal -0.168306 -0.985525 -0.0203476
  outer loop
  vertex 4.30606 -48.6652 23.2328
  vertex 4.30606 -48.6984 24.8432
  vertex 0.69473 -48.0768 24.6064
  endloop
 endfacet

 facet normal 0.899304 -0.256792 -0.353992
  outer loop
  vertex 8.48146 -49.265 16.5532
  vertex 7.63943 -49.6191 14.671
  vertex 8.07116 -47.862 14.4931
  endloop
 endfacet

 facet normal 0.830093 -0.48183 -0.280688
  outer loop
  vertex 7.63943 -49.6191 14.671
  vertex 8.48146 -49.265 16.5532
  vertex 7.63943 -51.0593 17.1433
  endloop
 endfacet

 facet normal 0.53614 0.196666 -0.8209
  outer loop
  vertex 6.14072 -51.6845 17.4949
  vertex 4.28193 -51.6517 16.2888
  vertex 4.28193 -51.4497 16.3372
  endloop
 endfacet

 facet normal 0.121156 -0.83184 0.541631
  outer loop
  vertex 4.28193 -52.4667 17.3997
  vertex 7.50788 -48.2668 23.1284
  vertex 4.30606 -48.6652 23.2328
  endloop
 endfacet

 facet normal 0.331565 -0.840136 0.429227
  outer loop
  vertex 4.28193 -52.4667 17.3997
  vertex 6.14072 -51.6845 17.4949
  vertex 7.50788 -48.2668 23.1284
  endloop
 endfacet

 facet normal 0.189106 -0.981747 -0.0202696
  outer loop
  vertex 4.30606 -48.6652 23.2328
  vertex 7.50788 -48.0768 24.6064
  vertex 4.30606 -48.6984 24.8432
  endloop
 endfacet

 facet normal 0.126529 -0.983864 0.126501
  outer loop
  vertex 4.30606 -48.6652 23.2328
  vertex 7.50788 -48.2668 23.1284
  vertex 7.50788 -48.0768 24.6064
  endloop
 endfacet

 facet normal 0.358173 -0.565505 0.742911
  outer loop
  vertex 7.50788 -48.0768 24.6064
  vertex 11.4583 -41.3354 27.8333
  vertex 4.59376 -43.4586 29.5267
  endloop
 endfacet

 facet normal 0.386336 -0.572546 0.723143
  outer loop
  vertex 7.50788 -48.0768 24.6064
  vertex 11.0942 -45.7062 24.5673
  vertex 11.4583 -41.3354 27.8333
  endloop
 endfacet

 facet normal 0.18216 -0.660807 0.728115
  outer loop
  vertex 7.50788 -48.0768 24.6064
  vertex 4.59376 -43.4586 29.5267
  vertex 4.30606 -48.6984 24.8432
  endloop
 endfacet

 facet normal -0.830093 -0.48183 -0.280688
  outer loop
  vertex 0.59681 -49.6191 14.671
  vertex 0.59681 -51.0593 17.1433
  vertex -0.245224 -49.265 16.5532
  endloop
 endfacet

 facet normal -0.00796505 -0.632427 0.774579
  outer loop
  vertex 7.93819 -38.6143 30.0188
  vertex 11.4583 -41.3354 27.8333
  vertex 12.36 -38.0148 30.5538
  endloop
 endfacet

 facet normal 0.0954621 0.897075 0.431444
  outer loop
  vertex 12.36 -38.0148 30.5538
  vertex 12.6701 -36.9728 28.3184
  vertex 9.01884 -36.5983 28.3477
  endloop
 endfacet

 facet normal 0.0966724 0.962519 -0.253401
  outer loop
  vertex 9.01884 -36.5983 28.3477
  vertex 12.6701 -36.9728 28.3184
  vertex 10.6748 -37.4616 25.7005
  endloop
 endfacet

 facet normal -0.608648 0.783495 0.125235
  outer loop
  vertex -1.48728 -37.4616 25.7005
  vertex 0.168681 -36.5983 28.3477
  vertex -0.935451 -36.602 23.0044
  endloop
 endfacet

 facet normal 0.981981 0.187993 -0.0193046
  outer loop
  vertex 10.7412 -37.5397 28.3184
  vertex 11.4583 -41.3354 27.8333
  vertex 10.6748 -37.4616 25.7005
  endloop
 endfacet

 facet normal 0 -0.80726 -0.590196
  outer loop
  vertex 7.35561 -48.4075 14.3443
  vertex 4.28193 -47.3279 12.8677
  vertex 5.55519 -47.3279 12.8677
  endloop
 endfacet

 facet normal 0 -0.80726 -0.590196
  outer loop
  vertex 7.35561 -48.4075 14.3443
  vertex 4.28193 -48.4075 14.3443
  vertex 4.28193 -47.3279 12.8677
  endloop
 endfacet

 facet normal -0.178281 0.682844 0.708477
  outer loop
  vertex 7.93819 -38.6143 30.0188
  vertex 12.36 -38.0148 30.5538
  vertex 9.01884 -36.5983 28.3477
  endloop
 endfacet

 facet normal 0.281827 -0.958798 -0.0357718
  outer loop
  vertex 10.7412 -37.5397 28.3184
  vertex 10.6748 -37.4616 25.7005
  vertex 12.6701 -36.9728 28.3184
  endloop
 endfacet

 facet normal -0.505096 -0.543224 0.670661
  outer loop
  vertex 0.69473 -48.0768 24.6064
  vertex -2.27082 -41.3354 27.8333
  vertex -1.90668 -45.7062 24.5673
  endloop
 endfacet

 facet normal -0.353487 -0.525833 0.773658
  outer loop
  vertex 0.69473 -48.0768 24.6064
  vertex 4.59376 -43.4586 29.5267
  vertex -2.27082 -41.3354 27.8333
  endloop
 endfacet

 facet normal 0.346681 -0.756272 -0.554856
  outer loop
  vertex 4.28193 -51.6517 16.2888
  vertex 6.14072 -51.6845 17.4949
  vertex 4.28193 -52.4667 17.3997
  endloop
 endfacet

 facet normal 0.221124 -0.823745 -0.522062
  outer loop
  vertex 7.63943 -51.0593 17.1433
  vertex 6.14072 -51.6845 17.4949
  vertex 4.28193 -51.4497 16.3372
  endloop
 endfacet

 facet normal 0 -0.80726 -0.590196
  outer loop
  vertex 4.28193 -48.4075 14.3443
  vertex 2.68104 -47.3279 12.8677
  vertex 4.28193 -47.3279 12.8677
  endloop
 endfacet

 facet normal 0 -0.80726 -0.590196
  outer loop
  vertex 4.28193 -48.4075 14.3443
  vertex 0.880622 -48.4075 14.3443
  vertex 2.68104 -47.3279 12.8677
  endloop
 endfacet

 facet normal 0.608648 0.783495 0.125235
  outer loop
  vertex 10.6748 -37.4616 25.7005
  vertex 10.123 -36.602 23.0044
  vertex 9.01884 -36.5983 28.3477
  endloop
 endfacet

 facet normal -0.0505799 -0.11366 -0.992231
  outer loop
  vertex 0.59681 -49.6191 14.671
  vertex 4.28193 -48.4075 14.3443
  vertex 4.28193 -49.7024 14.4927
  endloop
 endfacet

 facet normal 0 -0.260303 -0.965527
  outer loop
  vertex 0.59681 -49.6191 14.671
  vertex 0.880622 -48.4075 14.3443
  vertex 4.28193 -48.4075 14.3443
  endloop
 endfacet

 facet normal 0.448813 -0.366374 -0.815068
  outer loop
  vertex 8.07116 -47.862 14.4931
  vertex 7.35561 -48.4075 14.3443
  vertex 5.55519 -47.3279 12.8677
  endloop
 endfacet

 facet normal -0.160921 -0.652805 0.740237
  outer loop
  vertex 0.69473 -48.0768 24.6064
  vertex 4.30606 -48.6984 24.8432
  vertex 4.59376 -43.4586 29.5267
  endloop
 endfacet

 facet normal 0.178281 0.682844 0.708477
  outer loop
  vertex 1.24933 -38.6143 30.0188
  vertex 0.168681 -36.5983 28.3477
  vertex -3.17244 -38.0148 30.5538
  endloop
 endfacet

 facet normal -0.165467 -0.852164 -0.496425
  outer loop
  vertex 4.28193 -50.6547 15.2203
  vertex 0.59681 -51.0593 17.1433
  vertex 0.59681 -49.6191 14.671
  endloop
 endfacet

 facet normal -0.208479 -0.796762 -0.567193
  outer loop
  vertex 4.28193 -50.6547 15.2203
  vertex 4.28193 -51.4497 16.3372
  vertex 0.59681 -51.0593 17.1433
  endloop
 endfacet

 facet normal -0.899304 -0.256792 -0.353992
  outer loop
  vertex -0.245224 -49.265 16.5532
  vertex 0.165078 -47.862 14.4931
  vertex 0.59681 -49.6191 14.671
  endloop
 endfacet

 facet normal -0.316969 -0.309898 0.896378
  outer loop
  vertex 4.59376 -43.4586 29.5267
  vertex 1.24933 -38.6143 30.0188
  vertex -2.27082 -41.3354 27.8333
  endloop
 endfacet

 facet normal -0.0520988 -0.60632 -0.793512
  outer loop
  vertex 4.28193 -50.6547 15.2203
  vertex 0.59681 -49.6191 14.671
  vertex 4.28193 -49.7024 14.4927
  endloop
 endfacet

 facet normal -0.336435 -0.759274 -0.557059
  outer loop
  vertex 2.35893 -51.6845 17.4949
  vertex 4.28193 -51.6517 16.2888
  vertex 4.28193 -52.4667 17.3997
  endloop
 endfacet

 facet normal -0.198832 -0.842264 -0.501056
  outer loop
  vertex 2.35893 -51.6845 17.4949
  vertex 0.59681 -51.0593 17.1433
  vertex 4.28193 -51.4497 16.3372
  endloop
 endfacet

 facet normal -0.448813 -0.366374 -0.815068
  outer loop
  vertex 0.165078 -47.862 14.4931
  vertex 2.68104 -47.3279 12.8677
  vertex 0.880622 -48.4075 14.3443
  endloop
 endfacet

 facet normal 0.561902 0.220747 -0.797206
  outer loop
  vertex 8.07116 -47.862 14.4931
  vertex 5.55519 -47.3279 12.8677
  vertex 8.61597 -44.6322 15.7715
  endloop
 endfacet

 facet normal -0.981981 0.187993 -0.0193046
  outer loop
  vertex -1.5537 -37.5397 28.3184
  vertex -1.48728 -37.4616 25.7005
  vertex -2.27082 -41.3354 27.8333
  endloop
 endfacet

 facet normal -0.324292 -0.848205 0.418788
  outer loop
  vertex 4.28193 -52.4667 17.3997
  vertex 0.69473 -48.2668 23.1284
  vertex 2.35893 -51.6845 17.4949
  endloop
 endfacet

 facet normal -0.107558 -0.832718 0.54315
  outer loop
  vertex 4.28193 -52.4667 17.3997
  vertex 4.30606 -48.6652 23.2328
  vertex 0.69473 -48.2668 23.1284
  endloop
 endfacet

 facet normal -0.694209 -0.144605 -0.705098
  outer loop
  vertex -0.786329 -43.1615 15.427
  vertex 2.68104 -45.9899 12.5933
  vertex 2.68104 -47.3279 12.8677
  endloop
 endfacet

 facet normal 0.325985 -0.174147 -0.929197
  outer loop
  vertex 8.07116 -47.862 14.4931
  vertex 7.63943 -49.6191 14.671
  vertex 7.35561 -48.4075 14.3443
  endloop
 endfacet

 facet normal 0.603486 -0.160195 -0.781116
  outer loop
  vertex 9.97385 -43.1615 15.427
  vertex 5.55519 -47.3279 12.8677
  vertex 5.55519 -45.9899 12.5933
  endloop
 endfacet

 facet normal 0 -0.260303 -0.965527
  outer loop
  vertex 7.63943 -49.6191 14.671
  vertex 4.28193 -48.4075 14.3443
  vertex 7.35561 -48.4075 14.3443
  endloop
 endfacet

 facet normal 0.0555008 -0.11363 -0.991972
  outer loop
  vertex 7.63943 -49.6191 14.671
  vertex 4.28193 -49.7024 14.4927
  vertex 4.28193 -48.4075 14.3443
  endloop
 endfacet

 facet normal -0.325985 -0.174147 -0.929197
  outer loop
  vertex 0.165078 -47.862 14.4931
  vertex 0.880622 -48.4075 14.3443
  vertex 0.59681 -49.6191 14.671
  endloop
 endfacet

 facet normal 0.0571666 -0.606152 -0.793292
  outer loop
  vertex 7.63943 -49.6191 14.671
  vertex 4.28193 -50.6547 15.2203
  vertex 4.28193 -49.7024 14.4927
  endloop
 endfacet

 facet normal 0.22781 -0.793241 -0.564687
  outer loop
  vertex 4.28193 -50.6547 15.2203
  vertex 7.63943 -51.0593 17.1433
  vertex 4.28193 -51.4497 16.3372
  endloop
 endfacet

 facet normal 0.181106 -0.849786 -0.49504
  outer loop
  vertex 4.28193 -50.6547 15.2203
  vertex 7.63943 -49.6191 14.671
  vertex 7.63943 -51.0593 17.1433
  endloop
 endfacet

 facet normal 0 -0.200903 -0.979611
  outer loop
  vertex 4.28193 -45.9899 12.5933
  vertex 5.55519 -47.3279 12.8677
  vertex 4.28193 -47.3279 12.8677
  endloop
 endfacet

 facet normal 0 -0.200903 -0.979611
  outer loop
  vertex 4.28193 -45.9899 12.5933
  vertex 5.55519 -45.9899 12.5933
  vertex 5.55519 -47.3279 12.8677
  endloop
 endfacet

 facet normal 0 0.707785 -0.706428
  outer loop
  vertex 9.97385 -43.1615 15.427
  vertex 5.55519 -45.9899 12.5933
  vertex 4.26436 -43.1615 15.427
  endloop
 endfacet

 facet normal 0 0.707785 -0.706428
  outer loop
  vertex -0.786329 -43.1615 15.427
  vertex 4.26436 -43.1615 15.427
  vertex 2.68104 -45.9899 12.5933
  endloop
 endfacet

 facet normal 0 0.707785 -0.706428
  outer loop
  vertex 2.68104 -45.9899 12.5933
  vertex 4.26436 -43.1615 15.427
  vertex 4.28193 -45.9899 12.5933
  endloop
 endfacet

 facet normal -0.994223 -0.00264911 -0.107302
  outer loop
  vertex -1.90668 -45.7062 24.5673
  vertex -2.27082 -41.3354 27.8333
  vertex -1.60109 -44.026 21.6943
  endloop
 endfacet

 facet normal -0.980676 0.115758 -0.15772
  outer loop
  vertex -2.27082 -41.3354 27.8333
  vertex -0.935451 -36.602 23.0044
  vertex -1.60109 -44.026 21.6943
  endloop
 endfacet

 facet normal -0.980243 0.1065 -0.166676
  outer loop
  vertex -2.27082 -41.3354 27.8333
  vertex -1.48728 -37.4616 25.7005
  vertex -0.935451 -36.602 23.0044
  endloop
 endfacet

 facet normal 0.0519844 -0.322539 0.945128
  outer loop
  vertex 4.59376 -24.8831 34.8888
  vertex 7.93819 -38.6143 30.0188
  vertex 10.1424 -24.8831 34.5836
  endloop
 endfacet

 facet normal -0.0519844 -0.322539 0.945128
  outer loop
  vertex 1.24933 -38.6143 30.0188
  vertex 4.59376 -24.8831 34.8888
  vertex -0.954856 -24.8831 34.5836
  endloop
 endfacet

endsolid AssimpScene
